<mxfile host="Electron" modified="2024-06-03T08:32:35.975Z" agent="Mozilla/5.0 (Windows NT 10.0; Win64; x64) AppleWebKit/537.36 (KHTML, like Gecko) draw.io/24.1.0 Chrome/120.0.6099.109 Electron/28.1.0 Safari/537.36" etag="bXtKrBpUYYwMY-Mzjm3L" version="24.1.0" type="device" pages="3">
  <diagram name="Страница 1" id="Co1DrBfoyF5SPr8dCPLF">
    <mxGraphModel dx="2261" dy="2013" grid="1" gridSize="10" guides="1" tooltips="1" connect="1" arrows="1" fold="1" page="1" pageScale="1" pageWidth="827" pageHeight="1169" math="0" shadow="0">
      <root>
        <mxCell id="0" />
        <mxCell id="1" parent="0" />
        <mxCell id="JULEHy5MDzUD9v-VaJW9-1" style="edgeStyle=orthogonalEdgeStyle;rounded=0;orthogonalLoop=1;jettySize=auto;html=1;exitX=0.25;exitY=1;exitDx=0;exitDy=0;entryX=0.5;entryY=1;entryDx=0;entryDy=0;startArrow=none;startFill=0;endArrow=none;endFill=0;" parent="1" source="gVWfPYtFZQXKyzIPUxbn-1" target="gVWfPYtFZQXKyzIPUxbn-128" edge="1">
          <mxGeometry relative="1" as="geometry">
            <mxPoint x="180" y="710" as="targetPoint" />
            <Array as="points">
              <mxPoint x="339" y="530" />
              <mxPoint x="230" y="530" />
              <mxPoint x="230" y="780" />
              <mxPoint x="-150" y="780" />
            </Array>
          </mxGeometry>
        </mxCell>
        <mxCell id="qDKSQZRi73gtm8Q4n5Uz-49" style="edgeStyle=orthogonalEdgeStyle;rounded=0;orthogonalLoop=1;jettySize=auto;html=1;entryX=1;entryY=0.5;entryDx=0;entryDy=0;endArrow=none;endFill=0;" parent="1" source="gVWfPYtFZQXKyzIPUxbn-1" target="gVWfPYtFZQXKyzIPUxbn-9" edge="1">
          <mxGeometry relative="1" as="geometry" />
        </mxCell>
        <mxCell id="qDKSQZRi73gtm8Q4n5Uz-50" style="edgeStyle=orthogonalEdgeStyle;rounded=0;orthogonalLoop=1;jettySize=auto;html=1;entryX=1;entryY=0.5;entryDx=0;entryDy=0;endArrow=none;endFill=0;" parent="1" source="gVWfPYtFZQXKyzIPUxbn-1" target="gVWfPYtFZQXKyzIPUxbn-12" edge="1">
          <mxGeometry relative="1" as="geometry" />
        </mxCell>
        <mxCell id="gVWfPYtFZQXKyzIPUxbn-1" value="Currency" style="whiteSpace=wrap;html=1;align=center;" parent="1" vertex="1">
          <mxGeometry x="314" y="480" width="100" height="40" as="geometry" />
        </mxCell>
        <mxCell id="qDKSQZRi73gtm8Q4n5Uz-28" style="edgeStyle=orthogonalEdgeStyle;rounded=0;orthogonalLoop=1;jettySize=auto;html=1;entryX=1;entryY=0.5;entryDx=0;entryDy=0;endArrow=none;endFill=0;" parent="1" source="gVWfPYtFZQXKyzIPUxbn-2" target="qDKSQZRi73gtm8Q4n5Uz-3" edge="1">
          <mxGeometry relative="1" as="geometry" />
        </mxCell>
        <mxCell id="qDKSQZRi73gtm8Q4n5Uz-29" style="edgeStyle=orthogonalEdgeStyle;rounded=0;orthogonalLoop=1;jettySize=auto;html=1;entryX=1;entryY=0.5;entryDx=0;entryDy=0;endArrow=none;endFill=0;" parent="1" source="gVWfPYtFZQXKyzIPUxbn-2" target="gVWfPYtFZQXKyzIPUxbn-17" edge="1">
          <mxGeometry relative="1" as="geometry" />
        </mxCell>
        <mxCell id="qDKSQZRi73gtm8Q4n5Uz-30" style="edgeStyle=orthogonalEdgeStyle;rounded=0;orthogonalLoop=1;jettySize=auto;html=1;entryX=1;entryY=0.5;entryDx=0;entryDy=0;endArrow=none;endFill=0;" parent="1" source="gVWfPYtFZQXKyzIPUxbn-2" target="gVWfPYtFZQXKyzIPUxbn-18" edge="1">
          <mxGeometry relative="1" as="geometry" />
        </mxCell>
        <mxCell id="qDKSQZRi73gtm8Q4n5Uz-31" style="edgeStyle=orthogonalEdgeStyle;rounded=0;orthogonalLoop=1;jettySize=auto;html=1;entryX=1;entryY=0.5;entryDx=0;entryDy=0;endArrow=none;endFill=0;" parent="1" source="gVWfPYtFZQXKyzIPUxbn-2" target="gVWfPYtFZQXKyzIPUxbn-19" edge="1">
          <mxGeometry relative="1" as="geometry" />
        </mxCell>
        <mxCell id="gVWfPYtFZQXKyzIPUxbn-2" value="Exchange" style="whiteSpace=wrap;html=1;align=center;" parent="1" vertex="1">
          <mxGeometry y="480" width="100" height="40" as="geometry" />
        </mxCell>
        <mxCell id="gVWfPYtFZQXKyzIPUxbn-144" style="edgeStyle=orthogonalEdgeStyle;rounded=0;orthogonalLoop=1;jettySize=auto;html=1;entryX=1;entryY=0.5;entryDx=0;entryDy=0;endArrow=none;endFill=0;" parent="1" source="gVWfPYtFZQXKyzIPUxbn-3" target="gVWfPYtFZQXKyzIPUxbn-143" edge="1">
          <mxGeometry relative="1" as="geometry">
            <Array as="points">
              <mxPoint x="460" y="315" />
            </Array>
          </mxGeometry>
        </mxCell>
        <mxCell id="qDKSQZRi73gtm8Q4n5Uz-32" style="edgeStyle=orthogonalEdgeStyle;rounded=0;orthogonalLoop=1;jettySize=auto;html=1;entryX=1;entryY=0.5;entryDx=0;entryDy=0;endArrow=none;endFill=0;" parent="1" source="gVWfPYtFZQXKyzIPUxbn-3" target="gVWfPYtFZQXKyzIPUxbn-24" edge="1">
          <mxGeometry relative="1" as="geometry" />
        </mxCell>
        <mxCell id="qDKSQZRi73gtm8Q4n5Uz-33" style="edgeStyle=orthogonalEdgeStyle;rounded=0;orthogonalLoop=1;jettySize=auto;html=1;entryX=1;entryY=0.5;entryDx=0;entryDy=0;endArrow=none;endFill=0;" parent="1" source="gVWfPYtFZQXKyzIPUxbn-3" target="gVWfPYtFZQXKyzIPUxbn-25" edge="1">
          <mxGeometry relative="1" as="geometry" />
        </mxCell>
        <mxCell id="qDKSQZRi73gtm8Q4n5Uz-34" style="edgeStyle=orthogonalEdgeStyle;rounded=0;orthogonalLoop=1;jettySize=auto;html=1;entryX=1;entryY=0.5;entryDx=0;entryDy=0;endArrow=none;endFill=0;" parent="1" source="gVWfPYtFZQXKyzIPUxbn-3" target="gVWfPYtFZQXKyzIPUxbn-26" edge="1">
          <mxGeometry relative="1" as="geometry" />
        </mxCell>
        <mxCell id="qDKSQZRi73gtm8Q4n5Uz-35" style="edgeStyle=orthogonalEdgeStyle;rounded=0;orthogonalLoop=1;jettySize=auto;html=1;entryX=1;entryY=0.5;entryDx=0;entryDy=0;endArrow=none;endFill=0;" parent="1" source="gVWfPYtFZQXKyzIPUxbn-3" target="gVWfPYtFZQXKyzIPUxbn-27" edge="1">
          <mxGeometry relative="1" as="geometry" />
        </mxCell>
        <mxCell id="qDKSQZRi73gtm8Q4n5Uz-54" style="edgeStyle=orthogonalEdgeStyle;rounded=0;orthogonalLoop=1;jettySize=auto;html=1;entryX=1;entryY=0.5;entryDx=0;entryDy=0;endArrow=none;endFill=0;" parent="1" source="gVWfPYtFZQXKyzIPUxbn-3" target="gVWfPYtFZQXKyzIPUxbn-140" edge="1">
          <mxGeometry relative="1" as="geometry">
            <Array as="points">
              <mxPoint x="450" y="380" />
            </Array>
          </mxGeometry>
        </mxCell>
        <mxCell id="qDKSQZRi73gtm8Q4n5Uz-64" style="edgeStyle=orthogonalEdgeStyle;rounded=0;orthogonalLoop=1;jettySize=auto;html=1;entryX=0;entryY=0.5;entryDx=0;entryDy=0;endArrow=none;endFill=0;" parent="1" source="gVWfPYtFZQXKyzIPUxbn-3" target="gVWfPYtFZQXKyzIPUxbn-149" edge="1">
          <mxGeometry relative="1" as="geometry">
            <Array as="points">
              <mxPoint x="500" y="435" />
            </Array>
          </mxGeometry>
        </mxCell>
        <mxCell id="gVWfPYtFZQXKyzIPUxbn-3" value="User" style="whiteSpace=wrap;html=1;align=center;" parent="1" vertex="1">
          <mxGeometry x="438" y="590" width="100" height="40" as="geometry" />
        </mxCell>
        <mxCell id="gVWfPYtFZQXKyzIPUxbn-115" style="edgeStyle=orthogonalEdgeStyle;rounded=0;orthogonalLoop=1;jettySize=auto;html=1;entryX=1;entryY=0.5;entryDx=0;entryDy=0;endArrow=none;endFill=0;startArrow=none;startFill=0;" parent="1" source="gVWfPYtFZQXKyzIPUxbn-5" target="gVWfPYtFZQXKyzIPUxbn-44" edge="1">
          <mxGeometry relative="1" as="geometry" />
        </mxCell>
        <mxCell id="gVWfPYtFZQXKyzIPUxbn-116" style="edgeStyle=orthogonalEdgeStyle;rounded=0;orthogonalLoop=1;jettySize=auto;html=1;exitX=0;exitY=0.5;exitDx=0;exitDy=0;entryX=1;entryY=0.5;entryDx=0;entryDy=0;endArrow=none;endFill=0;startArrow=none;startFill=0;" parent="1" source="gVWfPYtFZQXKyzIPUxbn-5" target="gVWfPYtFZQXKyzIPUxbn-43" edge="1">
          <mxGeometry relative="1" as="geometry" />
        </mxCell>
        <mxCell id="gVWfPYtFZQXKyzIPUxbn-117" style="edgeStyle=orthogonalEdgeStyle;rounded=0;orthogonalLoop=1;jettySize=auto;html=1;entryX=1;entryY=0.5;entryDx=0;entryDy=0;endArrow=none;endFill=0;startArrow=none;startFill=0;" parent="1" source="gVWfPYtFZQXKyzIPUxbn-5" target="gVWfPYtFZQXKyzIPUxbn-41" edge="1">
          <mxGeometry relative="1" as="geometry" />
        </mxCell>
        <mxCell id="gVWfPYtFZQXKyzIPUxbn-118" style="edgeStyle=orthogonalEdgeStyle;rounded=0;orthogonalLoop=1;jettySize=auto;html=1;entryX=1;entryY=0.5;entryDx=0;entryDy=0;endArrow=none;endFill=0;startArrow=none;startFill=0;" parent="1" source="gVWfPYtFZQXKyzIPUxbn-5" target="gVWfPYtFZQXKyzIPUxbn-46" edge="1">
          <mxGeometry relative="1" as="geometry" />
        </mxCell>
        <mxCell id="gVWfPYtFZQXKyzIPUxbn-119" style="edgeStyle=orthogonalEdgeStyle;rounded=0;orthogonalLoop=1;jettySize=auto;html=1;entryX=1;entryY=0.5;entryDx=0;entryDy=0;endArrow=none;endFill=0;startArrow=none;startFill=0;" parent="1" source="gVWfPYtFZQXKyzIPUxbn-5" target="gVWfPYtFZQXKyzIPUxbn-47" edge="1">
          <mxGeometry relative="1" as="geometry" />
        </mxCell>
        <mxCell id="qDKSQZRi73gtm8Q4n5Uz-2" style="edgeStyle=orthogonalEdgeStyle;rounded=0;orthogonalLoop=1;jettySize=auto;html=1;entryX=1;entryY=0.5;entryDx=0;entryDy=0;endArrow=none;endFill=0;" parent="1" source="gVWfPYtFZQXKyzIPUxbn-5" target="qDKSQZRi73gtm8Q4n5Uz-1" edge="1">
          <mxGeometry relative="1" as="geometry" />
        </mxCell>
        <mxCell id="gVWfPYtFZQXKyzIPUxbn-5" value="Budget" style="whiteSpace=wrap;html=1;align=center;" parent="1" vertex="1">
          <mxGeometry x="50" y="270" width="100" height="40" as="geometry" />
        </mxCell>
        <mxCell id="gVWfPYtFZQXKyzIPUxbn-150" style="edgeStyle=orthogonalEdgeStyle;rounded=0;orthogonalLoop=1;jettySize=auto;html=1;entryX=1;entryY=0.5;entryDx=0;entryDy=0;endArrow=none;endFill=0;" parent="1" source="gVWfPYtFZQXKyzIPUxbn-7" target="gVWfPYtFZQXKyzIPUxbn-149" edge="1">
          <mxGeometry relative="1" as="geometry" />
        </mxCell>
        <mxCell id="qDKSQZRi73gtm8Q4n5Uz-36" style="edgeStyle=orthogonalEdgeStyle;rounded=0;orthogonalLoop=1;jettySize=auto;html=1;entryX=1;entryY=0.5;entryDx=0;entryDy=0;endArrow=none;endFill=0;" parent="1" source="gVWfPYtFZQXKyzIPUxbn-7" target="gVWfPYtFZQXKyzIPUxbn-72" edge="1">
          <mxGeometry relative="1" as="geometry" />
        </mxCell>
        <mxCell id="qDKSQZRi73gtm8Q4n5Uz-37" style="edgeStyle=orthogonalEdgeStyle;rounded=0;orthogonalLoop=1;jettySize=auto;html=1;entryX=1;entryY=0.5;entryDx=0;entryDy=0;endArrow=none;endFill=0;" parent="1" source="gVWfPYtFZQXKyzIPUxbn-7" target="gVWfPYtFZQXKyzIPUxbn-76" edge="1">
          <mxGeometry relative="1" as="geometry" />
        </mxCell>
        <mxCell id="qDKSQZRi73gtm8Q4n5Uz-38" style="edgeStyle=orthogonalEdgeStyle;rounded=0;orthogonalLoop=1;jettySize=auto;html=1;entryX=1;entryY=0.5;entryDx=0;entryDy=0;endArrow=none;endFill=0;" parent="1" source="gVWfPYtFZQXKyzIPUxbn-7" target="gVWfPYtFZQXKyzIPUxbn-71" edge="1">
          <mxGeometry relative="1" as="geometry" />
        </mxCell>
        <mxCell id="qDKSQZRi73gtm8Q4n5Uz-39" style="edgeStyle=orthogonalEdgeStyle;rounded=0;orthogonalLoop=1;jettySize=auto;html=1;entryX=1;entryY=0.5;entryDx=0;entryDy=0;endArrow=none;endFill=0;" parent="1" source="gVWfPYtFZQXKyzIPUxbn-7" target="gVWfPYtFZQXKyzIPUxbn-75" edge="1">
          <mxGeometry relative="1" as="geometry" />
        </mxCell>
        <mxCell id="qDKSQZRi73gtm8Q4n5Uz-40" style="edgeStyle=orthogonalEdgeStyle;rounded=0;orthogonalLoop=1;jettySize=auto;html=1;entryX=1;entryY=0.5;entryDx=0;entryDy=0;endArrow=none;endFill=0;" parent="1" source="gVWfPYtFZQXKyzIPUxbn-7" target="gVWfPYtFZQXKyzIPUxbn-77" edge="1">
          <mxGeometry relative="1" as="geometry" />
        </mxCell>
        <mxCell id="qDKSQZRi73gtm8Q4n5Uz-41" style="edgeStyle=orthogonalEdgeStyle;rounded=0;orthogonalLoop=1;jettySize=auto;html=1;entryX=1;entryY=0.5;entryDx=0;entryDy=0;endArrow=none;endFill=0;" parent="1" source="gVWfPYtFZQXKyzIPUxbn-7" target="gVWfPYtFZQXKyzIPUxbn-73" edge="1">
          <mxGeometry relative="1" as="geometry" />
        </mxCell>
        <mxCell id="qDKSQZRi73gtm8Q4n5Uz-42" style="edgeStyle=orthogonalEdgeStyle;rounded=0;orthogonalLoop=1;jettySize=auto;html=1;entryX=1;entryY=0.5;entryDx=0;entryDy=0;endArrow=none;endFill=0;" parent="1" source="gVWfPYtFZQXKyzIPUxbn-7" target="gVWfPYtFZQXKyzIPUxbn-74" edge="1">
          <mxGeometry relative="1" as="geometry" />
        </mxCell>
        <mxCell id="gVWfPYtFZQXKyzIPUxbn-7" value="Transaction" style="whiteSpace=wrap;html=1;align=center;" parent="1" vertex="1">
          <mxGeometry x="668" y="415" width="100" height="40" as="geometry" />
        </mxCell>
        <mxCell id="gVWfPYtFZQXKyzIPUxbn-9" value="id" style="ellipse;whiteSpace=wrap;html=1;align=center;fontStyle=4;" parent="1" vertex="1">
          <mxGeometry x="240" y="550" width="100" height="40" as="geometry" />
        </mxCell>
        <mxCell id="gVWfPYtFZQXKyzIPUxbn-12" value="Name" style="ellipse;whiteSpace=wrap;html=1;align=center;" parent="1" vertex="1">
          <mxGeometry x="240" y="610" width="100" height="40" as="geometry" />
        </mxCell>
        <mxCell id="gVWfPYtFZQXKyzIPUxbn-17" value="From" style="ellipse;whiteSpace=wrap;html=1;align=center;" parent="1" vertex="1">
          <mxGeometry x="-70" y="590" width="100" height="40" as="geometry" />
        </mxCell>
        <mxCell id="gVWfPYtFZQXKyzIPUxbn-18" value="To" style="ellipse;whiteSpace=wrap;html=1;align=center;" parent="1" vertex="1">
          <mxGeometry x="-70" y="645" width="100" height="40" as="geometry" />
        </mxCell>
        <mxCell id="gVWfPYtFZQXKyzIPUxbn-19" value="Factor" style="ellipse;whiteSpace=wrap;html=1;align=center;" parent="1" vertex="1">
          <mxGeometry x="-70" y="700" width="100" height="40" as="geometry" />
        </mxCell>
        <mxCell id="gVWfPYtFZQXKyzIPUxbn-24" value="id" style="ellipse;whiteSpace=wrap;html=1;align=center;fontStyle=4;" parent="1" vertex="1">
          <mxGeometry x="342" y="655" width="100" height="40" as="geometry" />
        </mxCell>
        <mxCell id="gVWfPYtFZQXKyzIPUxbn-25" value="Login" style="ellipse;whiteSpace=wrap;html=1;align=center;" parent="1" vertex="1">
          <mxGeometry x="342" y="705" width="100" height="40" as="geometry" />
        </mxCell>
        <mxCell id="gVWfPYtFZQXKyzIPUxbn-26" value="Password" style="ellipse;whiteSpace=wrap;html=1;align=center;" parent="1" vertex="1">
          <mxGeometry x="342" y="755" width="100" height="40" as="geometry" />
        </mxCell>
        <mxCell id="gVWfPYtFZQXKyzIPUxbn-27" value="Admin" style="ellipse;whiteSpace=wrap;html=1;align=center;" parent="1" vertex="1">
          <mxGeometry x="342" y="805" width="100" height="40" as="geometry" />
        </mxCell>
        <mxCell id="qDKSQZRi73gtm8Q4n5Uz-43" style="edgeStyle=orthogonalEdgeStyle;rounded=0;orthogonalLoop=1;jettySize=auto;html=1;entryX=1;entryY=0.5;entryDx=0;entryDy=0;endArrow=none;endFill=0;" parent="1" source="gVWfPYtFZQXKyzIPUxbn-36" target="gVWfPYtFZQXKyzIPUxbn-38" edge="1">
          <mxGeometry relative="1" as="geometry" />
        </mxCell>
        <mxCell id="qDKSQZRi73gtm8Q4n5Uz-44" style="edgeStyle=orthogonalEdgeStyle;rounded=0;orthogonalLoop=1;jettySize=auto;html=1;entryX=1;entryY=0.5;entryDx=0;entryDy=0;endArrow=none;endFill=0;" parent="1" source="gVWfPYtFZQXKyzIPUxbn-36" target="gVWfPYtFZQXKyzIPUxbn-40" edge="1">
          <mxGeometry relative="1" as="geometry" />
        </mxCell>
        <mxCell id="gVWfPYtFZQXKyzIPUxbn-36" value="Category" style="whiteSpace=wrap;html=1;align=center;" parent="1" vertex="1">
          <mxGeometry x="668" y="230" width="100" height="40" as="geometry" />
        </mxCell>
        <mxCell id="gVWfPYtFZQXKyzIPUxbn-38" value="id" style="ellipse;whiteSpace=wrap;html=1;align=center;fontStyle=4;" parent="1" vertex="1">
          <mxGeometry x="592" y="170" width="100" height="40" as="geometry" />
        </mxCell>
        <mxCell id="gVWfPYtFZQXKyzIPUxbn-40" value="Name" style="ellipse;whiteSpace=wrap;html=1;align=center;" parent="1" vertex="1">
          <mxGeometry x="592" y="115" width="100" height="40" as="geometry" />
        </mxCell>
        <mxCell id="gVWfPYtFZQXKyzIPUxbn-41" value="id" style="ellipse;whiteSpace=wrap;html=1;align=center;fontStyle=4;" parent="1" vertex="1">
          <mxGeometry x="-119" y="150" width="100" height="40" as="geometry" />
        </mxCell>
        <mxCell id="gVWfPYtFZQXKyzIPUxbn-43" value="Currency" style="ellipse;whiteSpace=wrap;html=1;align=center;" parent="1" vertex="1">
          <mxGeometry x="-120" y="215" width="100" height="40" as="geometry" />
        </mxCell>
        <mxCell id="gVWfPYtFZQXKyzIPUxbn-44" value="Start" style="ellipse;whiteSpace=wrap;html=1;align=center;" parent="1" vertex="1">
          <mxGeometry x="-120" y="270" width="100" height="40" as="geometry" />
        </mxCell>
        <mxCell id="gVWfPYtFZQXKyzIPUxbn-46" value="Description" style="ellipse;whiteSpace=wrap;html=1;align=center;" parent="1" vertex="1">
          <mxGeometry x="-120" y="390" width="100" height="40" as="geometry" />
        </mxCell>
        <mxCell id="gVWfPYtFZQXKyzIPUxbn-47" value="Value" style="ellipse;whiteSpace=wrap;html=1;align=center;" parent="1" vertex="1">
          <mxGeometry x="-120" y="450" width="100" height="40" as="geometry" />
        </mxCell>
        <mxCell id="ferH67_0hWtnoUYWaNd6-2" style="edgeStyle=orthogonalEdgeStyle;rounded=0;orthogonalLoop=1;jettySize=auto;html=1;entryX=1;entryY=0.5;entryDx=0;entryDy=0;startArrow=none;startFill=0;endArrow=none;endFill=0;" parent="1" source="gVWfPYtFZQXKyzIPUxbn-60" target="ferH67_0hWtnoUYWaNd6-1" edge="1">
          <mxGeometry relative="1" as="geometry" />
        </mxCell>
        <mxCell id="qDKSQZRi73gtm8Q4n5Uz-57" style="edgeStyle=orthogonalEdgeStyle;rounded=0;orthogonalLoop=1;jettySize=auto;html=1;entryX=1;entryY=0.5;entryDx=0;entryDy=0;endArrow=none;endFill=0;" parent="1" source="gVWfPYtFZQXKyzIPUxbn-60" target="gVWfPYtFZQXKyzIPUxbn-62" edge="1">
          <mxGeometry relative="1" as="geometry" />
        </mxCell>
        <mxCell id="qDKSQZRi73gtm8Q4n5Uz-59" style="edgeStyle=orthogonalEdgeStyle;rounded=0;orthogonalLoop=1;jettySize=auto;html=1;entryX=1;entryY=0.5;entryDx=0;entryDy=0;endArrow=none;endFill=0;" parent="1" source="gVWfPYtFZQXKyzIPUxbn-60" target="gVWfPYtFZQXKyzIPUxbn-66" edge="1">
          <mxGeometry relative="1" as="geometry" />
        </mxCell>
        <mxCell id="qDKSQZRi73gtm8Q4n5Uz-60" style="edgeStyle=orthogonalEdgeStyle;rounded=0;orthogonalLoop=1;jettySize=auto;html=1;entryX=1;entryY=0.5;entryDx=0;entryDy=0;endArrow=none;endFill=0;" parent="1" source="gVWfPYtFZQXKyzIPUxbn-60" target="gVWfPYtFZQXKyzIPUxbn-68" edge="1">
          <mxGeometry relative="1" as="geometry" />
        </mxCell>
        <mxCell id="qDKSQZRi73gtm8Q4n5Uz-61" style="edgeStyle=orthogonalEdgeStyle;rounded=0;orthogonalLoop=1;jettySize=auto;html=1;entryX=1;entryY=0.5;entryDx=0;entryDy=0;endArrow=none;endFill=0;" parent="1" source="gVWfPYtFZQXKyzIPUxbn-60" target="gVWfPYtFZQXKyzIPUxbn-70" edge="1">
          <mxGeometry relative="1" as="geometry" />
        </mxCell>
        <mxCell id="qDKSQZRi73gtm8Q4n5Uz-62" style="edgeStyle=orthogonalEdgeStyle;rounded=0;orthogonalLoop=1;jettySize=auto;html=1;entryX=0.5;entryY=0;entryDx=0;entryDy=0;endArrow=none;endFill=0;" parent="1" source="gVWfPYtFZQXKyzIPUxbn-60" target="gVWfPYtFZQXKyzIPUxbn-146" edge="1">
          <mxGeometry relative="1" as="geometry" />
        </mxCell>
        <mxCell id="gVWfPYtFZQXKyzIPUxbn-60" value="Goal" style="whiteSpace=wrap;html=1;align=center;" parent="1" vertex="1">
          <mxGeometry x="428" y="60" width="100" height="40" as="geometry" />
        </mxCell>
        <mxCell id="gVWfPYtFZQXKyzIPUxbn-62" value="id" style="ellipse;whiteSpace=wrap;html=1;align=center;fontStyle=4;" parent="1" vertex="1">
          <mxGeometry x="350" y="-20" width="100" height="40" as="geometry" />
        </mxCell>
        <mxCell id="gVWfPYtFZQXKyzIPUxbn-66" value="Target" style="ellipse;whiteSpace=wrap;html=1;align=center;" parent="1" vertex="1">
          <mxGeometry x="350" y="-80" width="100" height="40" as="geometry" />
        </mxCell>
        <mxCell id="gVWfPYtFZQXKyzIPUxbn-68" value="Description" style="ellipse;whiteSpace=wrap;html=1;align=center;" parent="1" vertex="1">
          <mxGeometry x="350" y="-140" width="100" height="40" as="geometry" />
        </mxCell>
        <mxCell id="gVWfPYtFZQXKyzIPUxbn-70" value="Account" style="ellipse;whiteSpace=wrap;html=1;align=center;" parent="1" vertex="1">
          <mxGeometry x="350" y="-200" width="100" height="40" as="geometry" />
        </mxCell>
        <mxCell id="gVWfPYtFZQXKyzIPUxbn-71" value="Category" style="ellipse;whiteSpace=wrap;html=1;align=center;" parent="1" vertex="1">
          <mxGeometry x="568" y="610" width="100" height="40" as="geometry" />
        </mxCell>
        <mxCell id="gVWfPYtFZQXKyzIPUxbn-72" value="id" style="ellipse;whiteSpace=wrap;html=1;align=center;fontStyle=4;" parent="1" vertex="1">
          <mxGeometry x="568" y="495" width="100" height="40" as="geometry" />
        </mxCell>
        <mxCell id="gVWfPYtFZQXKyzIPUxbn-73" value="From" style="ellipse;whiteSpace=wrap;html=1;align=center;" parent="1" vertex="1">
          <mxGeometry x="568" y="785" width="100" height="40" as="geometry" />
        </mxCell>
        <mxCell id="gVWfPYtFZQXKyzIPUxbn-74" value="To" style="ellipse;whiteSpace=wrap;html=1;align=center;" parent="1" vertex="1">
          <mxGeometry x="568" y="845" width="100" height="40" as="geometry" />
        </mxCell>
        <mxCell id="gVWfPYtFZQXKyzIPUxbn-75" value="Value" style="ellipse;whiteSpace=wrap;html=1;align=center;" parent="1" vertex="1">
          <mxGeometry x="568" y="665" width="100" height="40" as="geometry" />
        </mxCell>
        <mxCell id="gVWfPYtFZQXKyzIPUxbn-76" value="Description" style="ellipse;whiteSpace=wrap;html=1;align=center;" parent="1" vertex="1">
          <mxGeometry x="568" y="555" width="100" height="40" as="geometry" />
        </mxCell>
        <mxCell id="gVWfPYtFZQXKyzIPUxbn-77" value="Timestamp" style="ellipse;whiteSpace=wrap;html=1;align=center;" parent="1" vertex="1">
          <mxGeometry x="568" y="725" width="100" height="40" as="geometry" />
        </mxCell>
        <mxCell id="qDKSQZRi73gtm8Q4n5Uz-67" style="edgeStyle=orthogonalEdgeStyle;rounded=0;orthogonalLoop=1;jettySize=auto;html=1;entryX=1;entryY=0.5;entryDx=0;entryDy=0;endArrow=none;endFill=0;" parent="1" source="gVWfPYtFZQXKyzIPUxbn-89" target="gVWfPYtFZQXKyzIPUxbn-91" edge="1">
          <mxGeometry relative="1" as="geometry">
            <Array as="points">
              <mxPoint x="90" />
            </Array>
          </mxGeometry>
        </mxCell>
        <mxCell id="qDKSQZRi73gtm8Q4n5Uz-69" style="edgeStyle=orthogonalEdgeStyle;rounded=0;orthogonalLoop=1;jettySize=auto;html=1;entryX=1;entryY=0.5;entryDx=0;entryDy=0;endArrow=none;endFill=0;" parent="1" source="gVWfPYtFZQXKyzIPUxbn-89" target="gVWfPYtFZQXKyzIPUxbn-99" edge="1">
          <mxGeometry relative="1" as="geometry">
            <Array as="points">
              <mxPoint x="90" y="-180" />
            </Array>
          </mxGeometry>
        </mxCell>
        <mxCell id="qDKSQZRi73gtm8Q4n5Uz-70" style="edgeStyle=orthogonalEdgeStyle;rounded=0;orthogonalLoop=1;jettySize=auto;html=1;entryX=1;entryY=0.5;entryDx=0;entryDy=0;endArrow=none;endFill=0;" parent="1" source="gVWfPYtFZQXKyzIPUxbn-89" target="gVWfPYtFZQXKyzIPUxbn-93" edge="1">
          <mxGeometry relative="1" as="geometry">
            <Array as="points">
              <mxPoint x="90" y="-60" />
            </Array>
          </mxGeometry>
        </mxCell>
        <mxCell id="qDKSQZRi73gtm8Q4n5Uz-71" style="edgeStyle=orthogonalEdgeStyle;rounded=0;orthogonalLoop=1;jettySize=auto;html=1;entryX=1;entryY=0.5;entryDx=0;entryDy=0;endArrow=none;endFill=0;" parent="1" source="gVWfPYtFZQXKyzIPUxbn-89" target="gVWfPYtFZQXKyzIPUxbn-97" edge="1">
          <mxGeometry relative="1" as="geometry">
            <Array as="points">
              <mxPoint x="90" y="-120" />
            </Array>
          </mxGeometry>
        </mxCell>
        <mxCell id="gVWfPYtFZQXKyzIPUxbn-89" value="Account" style="whiteSpace=wrap;html=1;align=center;" parent="1" vertex="1">
          <mxGeometry x="40" y="70" width="100" height="40" as="geometry" />
        </mxCell>
        <mxCell id="gVWfPYtFZQXKyzIPUxbn-91" value="id" style="ellipse;whiteSpace=wrap;html=1;align=center;fontStyle=4;" parent="1" vertex="1">
          <mxGeometry x="-90" y="-20" width="100" height="40" as="geometry" />
        </mxCell>
        <mxCell id="gVWfPYtFZQXKyzIPUxbn-93" value="Currency" style="ellipse;whiteSpace=wrap;html=1;align=center;" parent="1" vertex="1">
          <mxGeometry x="-90" y="-80" width="100" height="40" as="geometry" />
        </mxCell>
        <mxCell id="gVWfPYtFZQXKyzIPUxbn-97" value="Description" style="ellipse;whiteSpace=wrap;html=1;align=center;" parent="1" vertex="1">
          <mxGeometry x="-90" y="-140" width="100" height="40" as="geometry" />
        </mxCell>
        <mxCell id="gVWfPYtFZQXKyzIPUxbn-99" value="Value" style="ellipse;whiteSpace=wrap;html=1;align=center;" parent="1" vertex="1">
          <mxGeometry x="-90" y="-200" width="100" height="40" as="geometry" />
        </mxCell>
        <mxCell id="gVWfPYtFZQXKyzIPUxbn-103" style="edgeStyle=orthogonalEdgeStyle;rounded=0;orthogonalLoop=1;jettySize=auto;html=1;entryX=0;entryY=0.5;entryDx=0;entryDy=0;endArrow=none;endFill=0;" parent="1" source="gVWfPYtFZQXKyzIPUxbn-102" target="gVWfPYtFZQXKyzIPUxbn-1" edge="1">
          <mxGeometry relative="1" as="geometry" />
        </mxCell>
        <mxCell id="gVWfPYtFZQXKyzIPUxbn-104" style="edgeStyle=orthogonalEdgeStyle;rounded=0;orthogonalLoop=1;jettySize=auto;html=1;entryX=1;entryY=0.5;entryDx=0;entryDy=0;endArrow=none;endFill=0;" parent="1" source="gVWfPYtFZQXKyzIPUxbn-102" target="gVWfPYtFZQXKyzIPUxbn-2" edge="1">
          <mxGeometry relative="1" as="geometry">
            <Array as="points">
              <mxPoint x="140" y="500" />
              <mxPoint x="140" y="500" />
            </Array>
          </mxGeometry>
        </mxCell>
        <mxCell id="gVWfPYtFZQXKyzIPUxbn-102" value="Sets" style="shape=rhombus;perimeter=rhombusPerimeter;whiteSpace=wrap;html=1;align=center;" parent="1" vertex="1">
          <mxGeometry x="130" y="470" width="120" height="60" as="geometry" />
        </mxCell>
        <mxCell id="gVWfPYtFZQXKyzIPUxbn-111" style="edgeStyle=orthogonalEdgeStyle;rounded=0;orthogonalLoop=1;jettySize=auto;html=1;exitX=0.5;exitY=0;exitDx=0;exitDy=0;entryX=0.5;entryY=1;entryDx=0;entryDy=0;endArrow=none;endFill=0;" parent="1" source="gVWfPYtFZQXKyzIPUxbn-105" target="gVWfPYtFZQXKyzIPUxbn-36" edge="1">
          <mxGeometry relative="1" as="geometry" />
        </mxCell>
        <mxCell id="gVWfPYtFZQXKyzIPUxbn-112" style="edgeStyle=orthogonalEdgeStyle;rounded=0;orthogonalLoop=1;jettySize=auto;html=1;exitX=0.5;exitY=1;exitDx=0;exitDy=0;entryX=0.5;entryY=0;entryDx=0;entryDy=0;endArrow=none;endFill=0;" parent="1" source="gVWfPYtFZQXKyzIPUxbn-105" target="gVWfPYtFZQXKyzIPUxbn-7" edge="1">
          <mxGeometry relative="1" as="geometry" />
        </mxCell>
        <mxCell id="gVWfPYtFZQXKyzIPUxbn-105" value="Has" style="shape=rhombus;perimeter=rhombusPerimeter;whiteSpace=wrap;html=1;align=center;" parent="1" vertex="1">
          <mxGeometry x="658" y="295" width="120" height="60" as="geometry" />
        </mxCell>
        <mxCell id="gVWfPYtFZQXKyzIPUxbn-121" style="edgeStyle=orthogonalEdgeStyle;rounded=0;orthogonalLoop=1;jettySize=auto;html=1;endArrow=none;endFill=0;" parent="1" source="gVWfPYtFZQXKyzIPUxbn-120" target="gVWfPYtFZQXKyzIPUxbn-5" edge="1">
          <mxGeometry relative="1" as="geometry">
            <Array as="points">
              <mxPoint x="92" y="420" />
            </Array>
          </mxGeometry>
        </mxCell>
        <mxCell id="gVWfPYtFZQXKyzIPUxbn-122" style="edgeStyle=orthogonalEdgeStyle;rounded=0;orthogonalLoop=1;jettySize=auto;html=1;entryX=0.5;entryY=0;entryDx=0;entryDy=0;endArrow=none;endFill=0;" parent="1" source="gVWfPYtFZQXKyzIPUxbn-120" target="gVWfPYtFZQXKyzIPUxbn-1" edge="1">
          <mxGeometry relative="1" as="geometry" />
        </mxCell>
        <mxCell id="gVWfPYtFZQXKyzIPUxbn-120" value="Sets" style="shape=rhombus;perimeter=rhombusPerimeter;whiteSpace=wrap;html=1;align=center;" parent="1" vertex="1">
          <mxGeometry x="142" y="390" width="120" height="60" as="geometry" />
        </mxCell>
        <mxCell id="gVWfPYtFZQXKyzIPUxbn-130" style="edgeStyle=orthogonalEdgeStyle;rounded=0;orthogonalLoop=1;jettySize=auto;html=1;entryX=0.5;entryY=1;entryDx=0;entryDy=0;endArrow=none;endFill=0;" parent="1" source="gVWfPYtFZQXKyzIPUxbn-128" target="gVWfPYtFZQXKyzIPUxbn-89" edge="1">
          <mxGeometry relative="1" as="geometry">
            <Array as="points">
              <mxPoint x="90" y="120" />
            </Array>
          </mxGeometry>
        </mxCell>
        <mxCell id="gVWfPYtFZQXKyzIPUxbn-128" value="Sets" style="shape=rhombus;perimeter=rhombusPerimeter;whiteSpace=wrap;html=1;align=center;" parent="1" vertex="1">
          <mxGeometry x="-210" y="90" width="120" height="60" as="geometry" />
        </mxCell>
        <mxCell id="gVWfPYtFZQXKyzIPUxbn-142" style="edgeStyle=orthogonalEdgeStyle;rounded=0;orthogonalLoop=1;jettySize=auto;html=1;exitX=0;exitY=0.5;exitDx=0;exitDy=0;entryX=1;entryY=0.5;entryDx=0;entryDy=0;endArrow=none;endFill=0;" parent="1" source="gVWfPYtFZQXKyzIPUxbn-140" edge="1">
          <mxGeometry relative="1" as="geometry">
            <Array as="points">
              <mxPoint x="240" y="380" />
              <mxPoint x="240" y="290" />
              <mxPoint x="150" y="290" />
            </Array>
            <mxPoint x="464" y="410" as="sourcePoint" />
            <mxPoint x="150" y="280" as="targetPoint" />
          </mxGeometry>
        </mxCell>
        <mxCell id="gVWfPYtFZQXKyzIPUxbn-140" value="Has" style="shape=rhombus;perimeter=rhombusPerimeter;whiteSpace=wrap;html=1;align=center;" parent="1" vertex="1">
          <mxGeometry x="262" y="350" width="120" height="60" as="geometry" />
        </mxCell>
        <mxCell id="qDKSQZRi73gtm8Q4n5Uz-52" style="edgeStyle=orthogonalEdgeStyle;rounded=0;orthogonalLoop=1;jettySize=auto;html=1;entryX=1;entryY=0.75;entryDx=0;entryDy=0;endArrow=none;endFill=0;" parent="1" source="gVWfPYtFZQXKyzIPUxbn-143" target="gVWfPYtFZQXKyzIPUxbn-89" edge="1">
          <mxGeometry relative="1" as="geometry">
            <Array as="points">
              <mxPoint x="390" y="240" />
              <mxPoint x="295" y="240" />
              <mxPoint x="295" y="100" />
            </Array>
          </mxGeometry>
        </mxCell>
        <mxCell id="gVWfPYtFZQXKyzIPUxbn-143" value="Has" style="shape=rhombus;perimeter=rhombusPerimeter;whiteSpace=wrap;html=1;align=center;" parent="1" vertex="1">
          <mxGeometry x="330" y="285" width="120" height="60" as="geometry" />
        </mxCell>
        <mxCell id="qDKSQZRi73gtm8Q4n5Uz-65" style="edgeStyle=orthogonalEdgeStyle;rounded=0;orthogonalLoop=1;jettySize=auto;html=1;entryX=0.5;entryY=0;entryDx=0;entryDy=0;endArrow=none;endFill=0;" parent="1" source="gVWfPYtFZQXKyzIPUxbn-146" target="gVWfPYtFZQXKyzIPUxbn-3" edge="1">
          <mxGeometry relative="1" as="geometry" />
        </mxCell>
        <mxCell id="gVWfPYtFZQXKyzIPUxbn-146" value="Has" style="shape=rhombus;perimeter=rhombusPerimeter;whiteSpace=wrap;html=1;align=center;" parent="1" vertex="1">
          <mxGeometry x="418" y="205" width="120" height="60" as="geometry" />
        </mxCell>
        <mxCell id="gVWfPYtFZQXKyzIPUxbn-149" value="Has" style="shape=rhombus;perimeter=rhombusPerimeter;whiteSpace=wrap;html=1;align=center;" parent="1" vertex="1">
          <mxGeometry x="512" y="405" width="120" height="60" as="geometry" />
        </mxCell>
        <mxCell id="ferH67_0hWtnoUYWaNd6-3" style="edgeStyle=orthogonalEdgeStyle;rounded=0;orthogonalLoop=1;jettySize=auto;html=1;exitX=0;exitY=0.5;exitDx=0;exitDy=0;entryX=1;entryY=0.5;entryDx=0;entryDy=0;startArrow=none;startFill=0;endArrow=none;endFill=0;" parent="1" source="ferH67_0hWtnoUYWaNd6-1" target="gVWfPYtFZQXKyzIPUxbn-89" edge="1">
          <mxGeometry relative="1" as="geometry">
            <Array as="points">
              <mxPoint x="140" y="80" />
            </Array>
          </mxGeometry>
        </mxCell>
        <mxCell id="ferH67_0hWtnoUYWaNd6-1" value="Saves" style="shape=rhombus;perimeter=rhombusPerimeter;whiteSpace=wrap;html=1;align=center;" parent="1" vertex="1">
          <mxGeometry x="280" y="50" width="120" height="60" as="geometry" />
        </mxCell>
        <mxCell id="qDKSQZRi73gtm8Q4n5Uz-1" value="End" style="ellipse;whiteSpace=wrap;html=1;align=center;" parent="1" vertex="1">
          <mxGeometry x="-120" y="330" width="100" height="40" as="geometry" />
        </mxCell>
        <mxCell id="qDKSQZRi73gtm8Q4n5Uz-3" value="&lt;u&gt;id&lt;/u&gt;" style="ellipse;whiteSpace=wrap;html=1;align=center;" parent="1" vertex="1">
          <mxGeometry x="-70" y="540" width="100" height="40" as="geometry" />
        </mxCell>
        <mxCell id="qDKSQZRi73gtm8Q4n5Uz-25" style="edgeStyle=orthogonalEdgeStyle;rounded=0;orthogonalLoop=1;jettySize=auto;html=1;exitX=0.5;exitY=1;exitDx=0;exitDy=0;" parent="1" source="gVWfPYtFZQXKyzIPUxbn-76" target="gVWfPYtFZQXKyzIPUxbn-76" edge="1">
          <mxGeometry relative="1" as="geometry" />
        </mxCell>
      </root>
    </mxGraphModel>
  </diagram>
  <diagram id="l6517d9xZ--nqf52Un4G" name="Страница 2">
    <mxGraphModel dx="2261" dy="844" grid="1" gridSize="10" guides="1" tooltips="1" connect="1" arrows="1" fold="1" page="1" pageScale="1" pageWidth="827" pageHeight="1169" math="0" shadow="0">
      <root>
        <mxCell id="0" />
        <mxCell id="1" parent="0" />
        <mxCell id="Bpu6Eearpk1tLVcVZNhn-1" value="Currency" style="shape=table;startSize=30;container=1;collapsible=1;childLayout=tableLayout;fixedRows=1;rowLines=0;fontStyle=1;align=center;resizeLast=1;" parent="1" vertex="1">
          <mxGeometry x="150" y="620" width="180" height="90" as="geometry" />
        </mxCell>
        <mxCell id="Bpu6Eearpk1tLVcVZNhn-2" value="" style="shape=tableRow;horizontal=0;startSize=0;swimlaneHead=0;swimlaneBody=0;fillColor=none;collapsible=0;dropTarget=0;points=[[0,0.5],[1,0.5]];portConstraint=eastwest;top=0;left=0;right=0;bottom=1;" parent="Bpu6Eearpk1tLVcVZNhn-1" vertex="1">
          <mxGeometry y="30" width="180" height="30" as="geometry" />
        </mxCell>
        <mxCell id="Bpu6Eearpk1tLVcVZNhn-3" value="PK" style="shape=partialRectangle;connectable=0;fillColor=none;top=0;left=0;bottom=0;right=0;fontStyle=1;overflow=hidden;" parent="Bpu6Eearpk1tLVcVZNhn-2" vertex="1">
          <mxGeometry width="30" height="30" as="geometry">
            <mxRectangle width="30" height="30" as="alternateBounds" />
          </mxGeometry>
        </mxCell>
        <mxCell id="Bpu6Eearpk1tLVcVZNhn-4" value="id" style="shape=partialRectangle;connectable=0;fillColor=none;top=0;left=0;bottom=0;right=0;align=left;spacingLeft=6;fontStyle=5;overflow=hidden;" parent="Bpu6Eearpk1tLVcVZNhn-2" vertex="1">
          <mxGeometry x="30" width="150" height="30" as="geometry">
            <mxRectangle width="150" height="30" as="alternateBounds" />
          </mxGeometry>
        </mxCell>
        <mxCell id="Bpu6Eearpk1tLVcVZNhn-5" value="" style="shape=tableRow;horizontal=0;startSize=0;swimlaneHead=0;swimlaneBody=0;fillColor=none;collapsible=0;dropTarget=0;points=[[0,0.5],[1,0.5]];portConstraint=eastwest;top=0;left=0;right=0;bottom=0;" parent="Bpu6Eearpk1tLVcVZNhn-1" vertex="1">
          <mxGeometry y="60" width="180" height="30" as="geometry" />
        </mxCell>
        <mxCell id="Bpu6Eearpk1tLVcVZNhn-6" value="" style="shape=partialRectangle;connectable=0;fillColor=none;top=0;left=0;bottom=0;right=0;editable=1;overflow=hidden;" parent="Bpu6Eearpk1tLVcVZNhn-5" vertex="1">
          <mxGeometry width="30" height="30" as="geometry">
            <mxRectangle width="30" height="30" as="alternateBounds" />
          </mxGeometry>
        </mxCell>
        <mxCell id="Bpu6Eearpk1tLVcVZNhn-7" value="name" style="shape=partialRectangle;connectable=0;fillColor=none;top=0;left=0;bottom=0;right=0;align=left;spacingLeft=6;overflow=hidden;" parent="Bpu6Eearpk1tLVcVZNhn-5" vertex="1">
          <mxGeometry x="30" width="150" height="30" as="geometry">
            <mxRectangle width="150" height="30" as="alternateBounds" />
          </mxGeometry>
        </mxCell>
        <mxCell id="Bpu6Eearpk1tLVcVZNhn-43" value="User" style="shape=table;startSize=30;container=1;collapsible=1;childLayout=tableLayout;fixedRows=1;rowLines=0;fontStyle=1;align=center;resizeLast=1;" parent="1" vertex="1">
          <mxGeometry x="-560" y="1080" width="180" height="150" as="geometry" />
        </mxCell>
        <mxCell id="Bpu6Eearpk1tLVcVZNhn-44" value="" style="shape=tableRow;horizontal=0;startSize=0;swimlaneHead=0;swimlaneBody=0;fillColor=none;collapsible=0;dropTarget=0;points=[[0,0.5],[1,0.5]];portConstraint=eastwest;top=0;left=0;right=0;bottom=1;" parent="Bpu6Eearpk1tLVcVZNhn-43" vertex="1">
          <mxGeometry y="30" width="180" height="30" as="geometry" />
        </mxCell>
        <mxCell id="Bpu6Eearpk1tLVcVZNhn-45" value="PK" style="shape=partialRectangle;connectable=0;fillColor=none;top=0;left=0;bottom=0;right=0;fontStyle=1;overflow=hidden;" parent="Bpu6Eearpk1tLVcVZNhn-44" vertex="1">
          <mxGeometry width="30" height="30" as="geometry">
            <mxRectangle width="30" height="30" as="alternateBounds" />
          </mxGeometry>
        </mxCell>
        <mxCell id="Bpu6Eearpk1tLVcVZNhn-46" value="id" style="shape=partialRectangle;connectable=0;fillColor=none;top=0;left=0;bottom=0;right=0;align=left;spacingLeft=6;fontStyle=5;overflow=hidden;" parent="Bpu6Eearpk1tLVcVZNhn-44" vertex="1">
          <mxGeometry x="30" width="150" height="30" as="geometry">
            <mxRectangle width="150" height="30" as="alternateBounds" />
          </mxGeometry>
        </mxCell>
        <mxCell id="Bpu6Eearpk1tLVcVZNhn-47" value="" style="shape=tableRow;horizontal=0;startSize=0;swimlaneHead=0;swimlaneBody=0;fillColor=none;collapsible=0;dropTarget=0;points=[[0,0.5],[1,0.5]];portConstraint=eastwest;top=0;left=0;right=0;bottom=0;" parent="Bpu6Eearpk1tLVcVZNhn-43" vertex="1">
          <mxGeometry y="60" width="180" height="30" as="geometry" />
        </mxCell>
        <mxCell id="Bpu6Eearpk1tLVcVZNhn-48" value="" style="shape=partialRectangle;connectable=0;fillColor=none;top=0;left=0;bottom=0;right=0;editable=1;overflow=hidden;" parent="Bpu6Eearpk1tLVcVZNhn-47" vertex="1">
          <mxGeometry width="30" height="30" as="geometry">
            <mxRectangle width="30" height="30" as="alternateBounds" />
          </mxGeometry>
        </mxCell>
        <mxCell id="Bpu6Eearpk1tLVcVZNhn-49" value="login" style="shape=partialRectangle;connectable=0;fillColor=none;top=0;left=0;bottom=0;right=0;align=left;spacingLeft=6;overflow=hidden;" parent="Bpu6Eearpk1tLVcVZNhn-47" vertex="1">
          <mxGeometry x="30" width="150" height="30" as="geometry">
            <mxRectangle width="150" height="30" as="alternateBounds" />
          </mxGeometry>
        </mxCell>
        <mxCell id="Bpu6Eearpk1tLVcVZNhn-50" value="" style="shape=tableRow;horizontal=0;startSize=0;swimlaneHead=0;swimlaneBody=0;fillColor=none;collapsible=0;dropTarget=0;points=[[0,0.5],[1,0.5]];portConstraint=eastwest;top=0;left=0;right=0;bottom=0;" parent="Bpu6Eearpk1tLVcVZNhn-43" vertex="1">
          <mxGeometry y="90" width="180" height="30" as="geometry" />
        </mxCell>
        <mxCell id="Bpu6Eearpk1tLVcVZNhn-51" value="" style="shape=partialRectangle;connectable=0;fillColor=none;top=0;left=0;bottom=0;right=0;editable=1;overflow=hidden;" parent="Bpu6Eearpk1tLVcVZNhn-50" vertex="1">
          <mxGeometry width="30" height="30" as="geometry">
            <mxRectangle width="30" height="30" as="alternateBounds" />
          </mxGeometry>
        </mxCell>
        <mxCell id="Bpu6Eearpk1tLVcVZNhn-52" value="password" style="shape=partialRectangle;connectable=0;fillColor=none;top=0;left=0;bottom=0;right=0;align=left;spacingLeft=6;overflow=hidden;" parent="Bpu6Eearpk1tLVcVZNhn-50" vertex="1">
          <mxGeometry x="30" width="150" height="30" as="geometry">
            <mxRectangle width="150" height="30" as="alternateBounds" />
          </mxGeometry>
        </mxCell>
        <mxCell id="Bpu6Eearpk1tLVcVZNhn-53" value="" style="shape=tableRow;horizontal=0;startSize=0;swimlaneHead=0;swimlaneBody=0;fillColor=none;collapsible=0;dropTarget=0;points=[[0,0.5],[1,0.5]];portConstraint=eastwest;top=0;left=0;right=0;bottom=0;" parent="Bpu6Eearpk1tLVcVZNhn-43" vertex="1">
          <mxGeometry y="120" width="180" height="30" as="geometry" />
        </mxCell>
        <mxCell id="Bpu6Eearpk1tLVcVZNhn-54" value="" style="shape=partialRectangle;connectable=0;fillColor=none;top=0;left=0;bottom=0;right=0;editable=1;overflow=hidden;" parent="Bpu6Eearpk1tLVcVZNhn-53" vertex="1">
          <mxGeometry width="30" height="30" as="geometry">
            <mxRectangle width="30" height="30" as="alternateBounds" />
          </mxGeometry>
        </mxCell>
        <mxCell id="Bpu6Eearpk1tLVcVZNhn-55" value="admin" style="shape=partialRectangle;connectable=0;fillColor=none;top=0;left=0;bottom=0;right=0;align=left;spacingLeft=6;overflow=hidden;" parent="Bpu6Eearpk1tLVcVZNhn-53" vertex="1">
          <mxGeometry x="30" width="150" height="30" as="geometry">
            <mxRectangle width="150" height="30" as="alternateBounds" />
          </mxGeometry>
        </mxCell>
        <mxCell id="Bpu6Eearpk1tLVcVZNhn-77" value="Category" style="shape=table;startSize=30;container=1;collapsible=1;childLayout=tableLayout;fixedRows=1;rowLines=0;fontStyle=1;align=center;resizeLast=1;" parent="1" vertex="1">
          <mxGeometry x="-530" y="580" width="180" height="90" as="geometry" />
        </mxCell>
        <mxCell id="Bpu6Eearpk1tLVcVZNhn-78" value="" style="shape=tableRow;horizontal=0;startSize=0;swimlaneHead=0;swimlaneBody=0;fillColor=none;collapsible=0;dropTarget=0;points=[[0,0.5],[1,0.5]];portConstraint=eastwest;top=0;left=0;right=0;bottom=1;" parent="Bpu6Eearpk1tLVcVZNhn-77" vertex="1">
          <mxGeometry y="30" width="180" height="30" as="geometry" />
        </mxCell>
        <mxCell id="Bpu6Eearpk1tLVcVZNhn-79" value="PK" style="shape=partialRectangle;connectable=0;fillColor=none;top=0;left=0;bottom=0;right=0;fontStyle=1;overflow=hidden;" parent="Bpu6Eearpk1tLVcVZNhn-78" vertex="1">
          <mxGeometry width="30" height="30" as="geometry">
            <mxRectangle width="30" height="30" as="alternateBounds" />
          </mxGeometry>
        </mxCell>
        <mxCell id="Bpu6Eearpk1tLVcVZNhn-80" value="id" style="shape=partialRectangle;connectable=0;fillColor=none;top=0;left=0;bottom=0;right=0;align=left;spacingLeft=6;fontStyle=5;overflow=hidden;" parent="Bpu6Eearpk1tLVcVZNhn-78" vertex="1">
          <mxGeometry x="30" width="150" height="30" as="geometry">
            <mxRectangle width="150" height="30" as="alternateBounds" />
          </mxGeometry>
        </mxCell>
        <mxCell id="Bpu6Eearpk1tLVcVZNhn-81" value="" style="shape=tableRow;horizontal=0;startSize=0;swimlaneHead=0;swimlaneBody=0;fillColor=none;collapsible=0;dropTarget=0;points=[[0,0.5],[1,0.5]];portConstraint=eastwest;top=0;left=0;right=0;bottom=0;" parent="Bpu6Eearpk1tLVcVZNhn-77" vertex="1">
          <mxGeometry y="60" width="180" height="30" as="geometry" />
        </mxCell>
        <mxCell id="Bpu6Eearpk1tLVcVZNhn-82" value="" style="shape=partialRectangle;connectable=0;fillColor=none;top=0;left=0;bottom=0;right=0;editable=1;overflow=hidden;" parent="Bpu6Eearpk1tLVcVZNhn-81" vertex="1">
          <mxGeometry width="30" height="30" as="geometry">
            <mxRectangle width="30" height="30" as="alternateBounds" />
          </mxGeometry>
        </mxCell>
        <mxCell id="Bpu6Eearpk1tLVcVZNhn-83" value="name" style="shape=partialRectangle;connectable=0;fillColor=none;top=0;left=0;bottom=0;right=0;align=left;spacingLeft=6;overflow=hidden;" parent="Bpu6Eearpk1tLVcVZNhn-81" vertex="1">
          <mxGeometry x="30" width="150" height="30" as="geometry">
            <mxRectangle width="150" height="30" as="alternateBounds" />
          </mxGeometry>
        </mxCell>
        <mxCell id="Bpu6Eearpk1tLVcVZNhn-84" value="Budget" style="shape=table;startSize=30;container=1;collapsible=1;childLayout=tableLayout;fixedRows=1;rowLines=0;fontStyle=1;align=center;resizeLast=1;" parent="1" vertex="1">
          <mxGeometry x="180" y="840" width="180" height="240" as="geometry" />
        </mxCell>
        <mxCell id="Bpu6Eearpk1tLVcVZNhn-85" value="" style="shape=tableRow;horizontal=0;startSize=0;swimlaneHead=0;swimlaneBody=0;fillColor=none;collapsible=0;dropTarget=0;points=[[0,0.5],[1,0.5]];portConstraint=eastwest;top=0;left=0;right=0;bottom=1;" parent="Bpu6Eearpk1tLVcVZNhn-84" vertex="1">
          <mxGeometry y="30" width="180" height="30" as="geometry" />
        </mxCell>
        <mxCell id="Bpu6Eearpk1tLVcVZNhn-86" value="PK" style="shape=partialRectangle;connectable=0;fillColor=none;top=0;left=0;bottom=0;right=0;fontStyle=1;overflow=hidden;" parent="Bpu6Eearpk1tLVcVZNhn-85" vertex="1">
          <mxGeometry width="30" height="30" as="geometry">
            <mxRectangle width="30" height="30" as="alternateBounds" />
          </mxGeometry>
        </mxCell>
        <mxCell id="Bpu6Eearpk1tLVcVZNhn-87" value="id" style="shape=partialRectangle;connectable=0;fillColor=none;top=0;left=0;bottom=0;right=0;align=left;spacingLeft=6;fontStyle=5;overflow=hidden;" parent="Bpu6Eearpk1tLVcVZNhn-85" vertex="1">
          <mxGeometry x="30" width="150" height="30" as="geometry">
            <mxRectangle width="150" height="30" as="alternateBounds" />
          </mxGeometry>
        </mxCell>
        <mxCell id="Bpu6Eearpk1tLVcVZNhn-91" value="" style="shape=tableRow;horizontal=0;startSize=0;swimlaneHead=0;swimlaneBody=0;fillColor=none;collapsible=0;dropTarget=0;points=[[0,0.5],[1,0.5]];portConstraint=eastwest;top=0;left=0;right=0;bottom=0;" parent="Bpu6Eearpk1tLVcVZNhn-84" vertex="1">
          <mxGeometry y="60" width="180" height="30" as="geometry" />
        </mxCell>
        <mxCell id="Bpu6Eearpk1tLVcVZNhn-92" value="FK" style="shape=partialRectangle;connectable=0;fillColor=none;top=0;left=0;bottom=0;right=0;editable=1;overflow=hidden;" parent="Bpu6Eearpk1tLVcVZNhn-91" vertex="1">
          <mxGeometry width="30" height="30" as="geometry">
            <mxRectangle width="30" height="30" as="alternateBounds" />
          </mxGeometry>
        </mxCell>
        <mxCell id="Bpu6Eearpk1tLVcVZNhn-93" value="currency" style="shape=partialRectangle;connectable=0;fillColor=none;top=0;left=0;bottom=0;right=0;align=left;spacingLeft=6;overflow=hidden;" parent="Bpu6Eearpk1tLVcVZNhn-91" vertex="1">
          <mxGeometry x="30" width="150" height="30" as="geometry">
            <mxRectangle width="150" height="30" as="alternateBounds" />
          </mxGeometry>
        </mxCell>
        <mxCell id="Bpu6Eearpk1tLVcVZNhn-94" value="" style="shape=tableRow;horizontal=0;startSize=0;swimlaneHead=0;swimlaneBody=0;fillColor=none;collapsible=0;dropTarget=0;points=[[0,0.5],[1,0.5]];portConstraint=eastwest;top=0;left=0;right=0;bottom=0;" parent="Bpu6Eearpk1tLVcVZNhn-84" vertex="1">
          <mxGeometry y="90" width="180" height="30" as="geometry" />
        </mxCell>
        <mxCell id="Bpu6Eearpk1tLVcVZNhn-95" value="" style="shape=partialRectangle;connectable=0;fillColor=none;top=0;left=0;bottom=0;right=0;editable=1;overflow=hidden;" parent="Bpu6Eearpk1tLVcVZNhn-94" vertex="1">
          <mxGeometry width="30" height="30" as="geometry">
            <mxRectangle width="30" height="30" as="alternateBounds" />
          </mxGeometry>
        </mxCell>
        <mxCell id="Bpu6Eearpk1tLVcVZNhn-96" value="start" style="shape=partialRectangle;connectable=0;fillColor=none;top=0;left=0;bottom=0;right=0;align=left;spacingLeft=6;overflow=hidden;" parent="Bpu6Eearpk1tLVcVZNhn-94" vertex="1">
          <mxGeometry x="30" width="150" height="30" as="geometry">
            <mxRectangle width="150" height="30" as="alternateBounds" />
          </mxGeometry>
        </mxCell>
        <mxCell id="6v17F1DsMaT6wTxfP7VA-32" value="" style="shape=tableRow;horizontal=0;startSize=0;swimlaneHead=0;swimlaneBody=0;fillColor=none;collapsible=0;dropTarget=0;points=[[0,0.5],[1,0.5]];portConstraint=eastwest;top=0;left=0;right=0;bottom=0;" vertex="1" parent="Bpu6Eearpk1tLVcVZNhn-84">
          <mxGeometry y="120" width="180" height="30" as="geometry" />
        </mxCell>
        <mxCell id="6v17F1DsMaT6wTxfP7VA-33" value="" style="shape=partialRectangle;connectable=0;fillColor=none;top=0;left=0;bottom=0;right=0;editable=1;overflow=hidden;" vertex="1" parent="6v17F1DsMaT6wTxfP7VA-32">
          <mxGeometry width="30" height="30" as="geometry">
            <mxRectangle width="30" height="30" as="alternateBounds" />
          </mxGeometry>
        </mxCell>
        <mxCell id="6v17F1DsMaT6wTxfP7VA-34" value="end" style="shape=partialRectangle;connectable=0;fillColor=none;top=0;left=0;bottom=0;right=0;align=left;spacingLeft=6;overflow=hidden;" vertex="1" parent="6v17F1DsMaT6wTxfP7VA-32">
          <mxGeometry x="30" width="150" height="30" as="geometry">
            <mxRectangle width="150" height="30" as="alternateBounds" />
          </mxGeometry>
        </mxCell>
        <mxCell id="Bpu6Eearpk1tLVcVZNhn-111" value="" style="shape=tableRow;horizontal=0;startSize=0;swimlaneHead=0;swimlaneBody=0;fillColor=none;collapsible=0;dropTarget=0;points=[[0,0.5],[1,0.5]];portConstraint=eastwest;top=0;left=0;right=0;bottom=0;" parent="Bpu6Eearpk1tLVcVZNhn-84" vertex="1">
          <mxGeometry y="150" width="180" height="30" as="geometry" />
        </mxCell>
        <mxCell id="Bpu6Eearpk1tLVcVZNhn-112" value="" style="shape=partialRectangle;connectable=0;fillColor=none;top=0;left=0;bottom=0;right=0;editable=1;overflow=hidden;" parent="Bpu6Eearpk1tLVcVZNhn-111" vertex="1">
          <mxGeometry width="30" height="30" as="geometry">
            <mxRectangle width="30" height="30" as="alternateBounds" />
          </mxGeometry>
        </mxCell>
        <mxCell id="Bpu6Eearpk1tLVcVZNhn-113" value="description" style="shape=partialRectangle;connectable=0;fillColor=none;top=0;left=0;bottom=0;right=0;align=left;spacingLeft=6;overflow=hidden;" parent="Bpu6Eearpk1tLVcVZNhn-111" vertex="1">
          <mxGeometry x="30" width="150" height="30" as="geometry">
            <mxRectangle width="150" height="30" as="alternateBounds" />
          </mxGeometry>
        </mxCell>
        <mxCell id="Bpu6Eearpk1tLVcVZNhn-114" value="" style="shape=tableRow;horizontal=0;startSize=0;swimlaneHead=0;swimlaneBody=0;fillColor=none;collapsible=0;dropTarget=0;points=[[0,0.5],[1,0.5]];portConstraint=eastwest;top=0;left=0;right=0;bottom=0;" parent="Bpu6Eearpk1tLVcVZNhn-84" vertex="1">
          <mxGeometry y="180" width="180" height="30" as="geometry" />
        </mxCell>
        <mxCell id="Bpu6Eearpk1tLVcVZNhn-115" value="" style="shape=partialRectangle;connectable=0;fillColor=none;top=0;left=0;bottom=0;right=0;editable=1;overflow=hidden;" parent="Bpu6Eearpk1tLVcVZNhn-114" vertex="1">
          <mxGeometry width="30" height="30" as="geometry">
            <mxRectangle width="30" height="30" as="alternateBounds" />
          </mxGeometry>
        </mxCell>
        <mxCell id="Bpu6Eearpk1tLVcVZNhn-116" value="value" style="shape=partialRectangle;connectable=0;fillColor=none;top=0;left=0;bottom=0;right=0;align=left;spacingLeft=6;overflow=hidden;" parent="Bpu6Eearpk1tLVcVZNhn-114" vertex="1">
          <mxGeometry x="30" width="150" height="30" as="geometry">
            <mxRectangle width="150" height="30" as="alternateBounds" />
          </mxGeometry>
        </mxCell>
        <mxCell id="Bpu6Eearpk1tLVcVZNhn-88" value="" style="shape=tableRow;horizontal=0;startSize=0;swimlaneHead=0;swimlaneBody=0;fillColor=none;collapsible=0;dropTarget=0;points=[[0,0.5],[1,0.5]];portConstraint=eastwest;top=0;left=0;right=0;bottom=0;" parent="Bpu6Eearpk1tLVcVZNhn-84" vertex="1">
          <mxGeometry y="210" width="180" height="30" as="geometry" />
        </mxCell>
        <mxCell id="Bpu6Eearpk1tLVcVZNhn-89" value="FK" style="shape=partialRectangle;connectable=0;fillColor=none;top=0;left=0;bottom=0;right=0;editable=1;overflow=hidden;" parent="Bpu6Eearpk1tLVcVZNhn-88" vertex="1">
          <mxGeometry width="30" height="30" as="geometry">
            <mxRectangle width="30" height="30" as="alternateBounds" />
          </mxGeometry>
        </mxCell>
        <mxCell id="Bpu6Eearpk1tLVcVZNhn-90" value="owner" style="shape=partialRectangle;connectable=0;fillColor=none;top=0;left=0;bottom=0;right=0;align=left;spacingLeft=6;overflow=hidden;" parent="Bpu6Eearpk1tLVcVZNhn-88" vertex="1">
          <mxGeometry x="30" width="150" height="30" as="geometry">
            <mxRectangle width="150" height="30" as="alternateBounds" />
          </mxGeometry>
        </mxCell>
        <mxCell id="2V5wfSB69vU004kyjfql-74" value="Transaction" style="shape=table;startSize=30;container=1;collapsible=1;childLayout=tableLayout;fixedRows=1;rowLines=0;fontStyle=1;align=center;resizeLast=1;" parent="1" vertex="1">
          <mxGeometry x="-320" y="550" width="180" height="270" as="geometry" />
        </mxCell>
        <mxCell id="2V5wfSB69vU004kyjfql-75" value="" style="shape=tableRow;horizontal=0;startSize=0;swimlaneHead=0;swimlaneBody=0;fillColor=none;collapsible=0;dropTarget=0;points=[[0,0.5],[1,0.5]];portConstraint=eastwest;top=0;left=0;right=0;bottom=1;" parent="2V5wfSB69vU004kyjfql-74" vertex="1">
          <mxGeometry y="30" width="180" height="30" as="geometry" />
        </mxCell>
        <mxCell id="2V5wfSB69vU004kyjfql-76" value="PK" style="shape=partialRectangle;connectable=0;fillColor=none;top=0;left=0;bottom=0;right=0;fontStyle=1;overflow=hidden;" parent="2V5wfSB69vU004kyjfql-75" vertex="1">
          <mxGeometry width="30" height="30" as="geometry">
            <mxRectangle width="30" height="30" as="alternateBounds" />
          </mxGeometry>
        </mxCell>
        <mxCell id="2V5wfSB69vU004kyjfql-77" value="id" style="shape=partialRectangle;connectable=0;fillColor=none;top=0;left=0;bottom=0;right=0;align=left;spacingLeft=6;fontStyle=5;overflow=hidden;" parent="2V5wfSB69vU004kyjfql-75" vertex="1">
          <mxGeometry x="30" width="150" height="30" as="geometry">
            <mxRectangle width="150" height="30" as="alternateBounds" />
          </mxGeometry>
        </mxCell>
        <mxCell id="2V5wfSB69vU004kyjfql-81" value="" style="shape=tableRow;horizontal=0;startSize=0;swimlaneHead=0;swimlaneBody=0;fillColor=none;collapsible=0;dropTarget=0;points=[[0,0.5],[1,0.5]];portConstraint=eastwest;top=0;left=0;right=0;bottom=0;" parent="2V5wfSB69vU004kyjfql-74" vertex="1">
          <mxGeometry y="60" width="180" height="30" as="geometry" />
        </mxCell>
        <mxCell id="2V5wfSB69vU004kyjfql-82" value="FK" style="shape=partialRectangle;connectable=0;fillColor=none;top=0;left=0;bottom=0;right=0;editable=1;overflow=hidden;" parent="2V5wfSB69vU004kyjfql-81" vertex="1">
          <mxGeometry width="30" height="30" as="geometry">
            <mxRectangle width="30" height="30" as="alternateBounds" />
          </mxGeometry>
        </mxCell>
        <mxCell id="2V5wfSB69vU004kyjfql-83" value="category" style="shape=partialRectangle;connectable=0;fillColor=none;top=0;left=0;bottom=0;right=0;align=left;spacingLeft=6;overflow=hidden;" parent="2V5wfSB69vU004kyjfql-81" vertex="1">
          <mxGeometry x="30" width="150" height="30" as="geometry">
            <mxRectangle width="150" height="30" as="alternateBounds" />
          </mxGeometry>
        </mxCell>
        <mxCell id="2V5wfSB69vU004kyjfql-84" value="" style="shape=tableRow;horizontal=0;startSize=0;swimlaneHead=0;swimlaneBody=0;fillColor=none;collapsible=0;dropTarget=0;points=[[0,0.5],[1,0.5]];portConstraint=eastwest;top=0;left=0;right=0;bottom=0;" parent="2V5wfSB69vU004kyjfql-74" vertex="1">
          <mxGeometry y="90" width="180" height="30" as="geometry" />
        </mxCell>
        <mxCell id="2V5wfSB69vU004kyjfql-85" value="FK" style="shape=partialRectangle;connectable=0;fillColor=none;top=0;left=0;bottom=0;right=0;editable=1;overflow=hidden;" parent="2V5wfSB69vU004kyjfql-84" vertex="1">
          <mxGeometry width="30" height="30" as="geometry">
            <mxRectangle width="30" height="30" as="alternateBounds" />
          </mxGeometry>
        </mxCell>
        <mxCell id="2V5wfSB69vU004kyjfql-86" value="from" style="shape=partialRectangle;connectable=0;fillColor=none;top=0;left=0;bottom=0;right=0;align=left;spacingLeft=6;overflow=hidden;" parent="2V5wfSB69vU004kyjfql-84" vertex="1">
          <mxGeometry x="30" width="150" height="30" as="geometry">
            <mxRectangle width="150" height="30" as="alternateBounds" />
          </mxGeometry>
        </mxCell>
        <mxCell id="2V5wfSB69vU004kyjfql-87" value="" style="shape=tableRow;horizontal=0;startSize=0;swimlaneHead=0;swimlaneBody=0;fillColor=none;collapsible=0;dropTarget=0;points=[[0,0.5],[1,0.5]];portConstraint=eastwest;top=0;left=0;right=0;bottom=0;" parent="2V5wfSB69vU004kyjfql-74" vertex="1">
          <mxGeometry y="120" width="180" height="30" as="geometry" />
        </mxCell>
        <mxCell id="2V5wfSB69vU004kyjfql-88" value="FK" style="shape=partialRectangle;connectable=0;fillColor=none;top=0;left=0;bottom=0;right=0;editable=1;overflow=hidden;" parent="2V5wfSB69vU004kyjfql-87" vertex="1">
          <mxGeometry width="30" height="30" as="geometry">
            <mxRectangle width="30" height="30" as="alternateBounds" />
          </mxGeometry>
        </mxCell>
        <mxCell id="2V5wfSB69vU004kyjfql-89" value="to" style="shape=partialRectangle;connectable=0;fillColor=none;top=0;left=0;bottom=0;right=0;align=left;spacingLeft=6;overflow=hidden;" parent="2V5wfSB69vU004kyjfql-87" vertex="1">
          <mxGeometry x="30" width="150" height="30" as="geometry">
            <mxRectangle width="150" height="30" as="alternateBounds" />
          </mxGeometry>
        </mxCell>
        <mxCell id="2V5wfSB69vU004kyjfql-90" value="" style="shape=tableRow;horizontal=0;startSize=0;swimlaneHead=0;swimlaneBody=0;fillColor=none;collapsible=0;dropTarget=0;points=[[0,0.5],[1,0.5]];portConstraint=eastwest;top=0;left=0;right=0;bottom=0;" parent="2V5wfSB69vU004kyjfql-74" vertex="1">
          <mxGeometry y="150" width="180" height="30" as="geometry" />
        </mxCell>
        <mxCell id="2V5wfSB69vU004kyjfql-91" value="" style="shape=partialRectangle;connectable=0;fillColor=none;top=0;left=0;bottom=0;right=0;editable=1;overflow=hidden;" parent="2V5wfSB69vU004kyjfql-90" vertex="1">
          <mxGeometry width="30" height="30" as="geometry">
            <mxRectangle width="30" height="30" as="alternateBounds" />
          </mxGeometry>
        </mxCell>
        <mxCell id="2V5wfSB69vU004kyjfql-92" value="value" style="shape=partialRectangle;connectable=0;fillColor=none;top=0;left=0;bottom=0;right=0;align=left;spacingLeft=6;overflow=hidden;" parent="2V5wfSB69vU004kyjfql-90" vertex="1">
          <mxGeometry x="30" width="150" height="30" as="geometry">
            <mxRectangle width="150" height="30" as="alternateBounds" />
          </mxGeometry>
        </mxCell>
        <mxCell id="2V5wfSB69vU004kyjfql-93" value="" style="shape=tableRow;horizontal=0;startSize=0;swimlaneHead=0;swimlaneBody=0;fillColor=none;collapsible=0;dropTarget=0;points=[[0,0.5],[1,0.5]];portConstraint=eastwest;top=0;left=0;right=0;bottom=0;" parent="2V5wfSB69vU004kyjfql-74" vertex="1">
          <mxGeometry y="180" width="180" height="30" as="geometry" />
        </mxCell>
        <mxCell id="2V5wfSB69vU004kyjfql-94" value="" style="shape=partialRectangle;connectable=0;fillColor=none;top=0;left=0;bottom=0;right=0;editable=1;overflow=hidden;" parent="2V5wfSB69vU004kyjfql-93" vertex="1">
          <mxGeometry width="30" height="30" as="geometry">
            <mxRectangle width="30" height="30" as="alternateBounds" />
          </mxGeometry>
        </mxCell>
        <mxCell id="2V5wfSB69vU004kyjfql-95" value="description" style="shape=partialRectangle;connectable=0;fillColor=none;top=0;left=0;bottom=0;right=0;align=left;spacingLeft=6;overflow=hidden;" parent="2V5wfSB69vU004kyjfql-93" vertex="1">
          <mxGeometry x="30" width="150" height="30" as="geometry">
            <mxRectangle width="150" height="30" as="alternateBounds" />
          </mxGeometry>
        </mxCell>
        <mxCell id="2V5wfSB69vU004kyjfql-96" value="" style="shape=tableRow;horizontal=0;startSize=0;swimlaneHead=0;swimlaneBody=0;fillColor=none;collapsible=0;dropTarget=0;points=[[0,0.5],[1,0.5]];portConstraint=eastwest;top=0;left=0;right=0;bottom=0;" parent="2V5wfSB69vU004kyjfql-74" vertex="1">
          <mxGeometry y="210" width="180" height="30" as="geometry" />
        </mxCell>
        <mxCell id="2V5wfSB69vU004kyjfql-97" value="" style="shape=partialRectangle;connectable=0;fillColor=none;top=0;left=0;bottom=0;right=0;editable=1;overflow=hidden;" parent="2V5wfSB69vU004kyjfql-96" vertex="1">
          <mxGeometry width="30" height="30" as="geometry">
            <mxRectangle width="30" height="30" as="alternateBounds" />
          </mxGeometry>
        </mxCell>
        <mxCell id="2V5wfSB69vU004kyjfql-98" value="timestamp" style="shape=partialRectangle;connectable=0;fillColor=none;top=0;left=0;bottom=0;right=0;align=left;spacingLeft=6;overflow=hidden;" parent="2V5wfSB69vU004kyjfql-96" vertex="1">
          <mxGeometry x="30" width="150" height="30" as="geometry">
            <mxRectangle width="150" height="30" as="alternateBounds" />
          </mxGeometry>
        </mxCell>
        <mxCell id="2V5wfSB69vU004kyjfql-78" value="" style="shape=tableRow;horizontal=0;startSize=0;swimlaneHead=0;swimlaneBody=0;fillColor=none;collapsible=0;dropTarget=0;points=[[0,0.5],[1,0.5]];portConstraint=eastwest;top=0;left=0;right=0;bottom=0;" parent="2V5wfSB69vU004kyjfql-74" vertex="1">
          <mxGeometry y="240" width="180" height="30" as="geometry" />
        </mxCell>
        <mxCell id="2V5wfSB69vU004kyjfql-79" value="FK" style="shape=partialRectangle;connectable=0;fillColor=none;top=0;left=0;bottom=0;right=0;editable=1;overflow=hidden;" parent="2V5wfSB69vU004kyjfql-78" vertex="1">
          <mxGeometry width="30" height="30" as="geometry">
            <mxRectangle width="30" height="30" as="alternateBounds" />
          </mxGeometry>
        </mxCell>
        <mxCell id="2V5wfSB69vU004kyjfql-80" value="owner" style="shape=partialRectangle;connectable=0;fillColor=none;top=0;left=0;bottom=0;right=0;align=left;spacingLeft=6;overflow=hidden;" parent="2V5wfSB69vU004kyjfql-78" vertex="1">
          <mxGeometry x="30" width="150" height="30" as="geometry">
            <mxRectangle width="150" height="30" as="alternateBounds" />
          </mxGeometry>
        </mxCell>
        <mxCell id="2V5wfSB69vU004kyjfql-101" value="Account" style="shape=table;startSize=30;container=1;collapsible=1;childLayout=tableLayout;fixedRows=1;rowLines=0;fontStyle=1;align=center;resizeLast=1;" parent="1" vertex="1">
          <mxGeometry x="-80" y="840" width="180" height="180" as="geometry" />
        </mxCell>
        <mxCell id="2V5wfSB69vU004kyjfql-102" value="" style="shape=tableRow;horizontal=0;startSize=0;swimlaneHead=0;swimlaneBody=0;fillColor=none;collapsible=0;dropTarget=0;points=[[0,0.5],[1,0.5]];portConstraint=eastwest;top=0;left=0;right=0;bottom=1;" parent="2V5wfSB69vU004kyjfql-101" vertex="1">
          <mxGeometry y="30" width="180" height="30" as="geometry" />
        </mxCell>
        <mxCell id="2V5wfSB69vU004kyjfql-103" value="PK" style="shape=partialRectangle;connectable=0;fillColor=none;top=0;left=0;bottom=0;right=0;fontStyle=1;overflow=hidden;" parent="2V5wfSB69vU004kyjfql-102" vertex="1">
          <mxGeometry width="30" height="30" as="geometry">
            <mxRectangle width="30" height="30" as="alternateBounds" />
          </mxGeometry>
        </mxCell>
        <mxCell id="2V5wfSB69vU004kyjfql-104" value="id" style="shape=partialRectangle;connectable=0;fillColor=none;top=0;left=0;bottom=0;right=0;align=left;spacingLeft=6;fontStyle=5;overflow=hidden;" parent="2V5wfSB69vU004kyjfql-102" vertex="1">
          <mxGeometry x="30" width="150" height="30" as="geometry">
            <mxRectangle width="150" height="30" as="alternateBounds" />
          </mxGeometry>
        </mxCell>
        <mxCell id="2V5wfSB69vU004kyjfql-108" value="" style="shape=tableRow;horizontal=0;startSize=0;swimlaneHead=0;swimlaneBody=0;fillColor=none;collapsible=0;dropTarget=0;points=[[0,0.5],[1,0.5]];portConstraint=eastwest;top=0;left=0;right=0;bottom=0;" parent="2V5wfSB69vU004kyjfql-101" vertex="1">
          <mxGeometry y="60" width="180" height="30" as="geometry" />
        </mxCell>
        <mxCell id="2V5wfSB69vU004kyjfql-109" value="FK" style="shape=partialRectangle;connectable=0;fillColor=none;top=0;left=0;bottom=0;right=0;editable=1;overflow=hidden;" parent="2V5wfSB69vU004kyjfql-108" vertex="1">
          <mxGeometry width="30" height="30" as="geometry">
            <mxRectangle width="30" height="30" as="alternateBounds" />
          </mxGeometry>
        </mxCell>
        <mxCell id="2V5wfSB69vU004kyjfql-110" value="currency" style="shape=partialRectangle;connectable=0;fillColor=none;top=0;left=0;bottom=0;right=0;align=left;spacingLeft=6;overflow=hidden;" parent="2V5wfSB69vU004kyjfql-108" vertex="1">
          <mxGeometry x="30" width="150" height="30" as="geometry">
            <mxRectangle width="150" height="30" as="alternateBounds" />
          </mxGeometry>
        </mxCell>
        <mxCell id="2V5wfSB69vU004kyjfql-111" value="" style="shape=tableRow;horizontal=0;startSize=0;swimlaneHead=0;swimlaneBody=0;fillColor=none;collapsible=0;dropTarget=0;points=[[0,0.5],[1,0.5]];portConstraint=eastwest;top=0;left=0;right=0;bottom=0;" parent="2V5wfSB69vU004kyjfql-101" vertex="1">
          <mxGeometry y="90" width="180" height="30" as="geometry" />
        </mxCell>
        <mxCell id="2V5wfSB69vU004kyjfql-112" value="" style="shape=partialRectangle;connectable=0;fillColor=none;top=0;left=0;bottom=0;right=0;editable=1;overflow=hidden;" parent="2V5wfSB69vU004kyjfql-111" vertex="1">
          <mxGeometry width="30" height="30" as="geometry">
            <mxRectangle width="30" height="30" as="alternateBounds" />
          </mxGeometry>
        </mxCell>
        <mxCell id="2V5wfSB69vU004kyjfql-113" value="description" style="shape=partialRectangle;connectable=0;fillColor=none;top=0;left=0;bottom=0;right=0;align=left;spacingLeft=6;overflow=hidden;" parent="2V5wfSB69vU004kyjfql-111" vertex="1">
          <mxGeometry x="30" width="150" height="30" as="geometry">
            <mxRectangle width="150" height="30" as="alternateBounds" />
          </mxGeometry>
        </mxCell>
        <mxCell id="2V5wfSB69vU004kyjfql-114" value="" style="shape=tableRow;horizontal=0;startSize=0;swimlaneHead=0;swimlaneBody=0;fillColor=none;collapsible=0;dropTarget=0;points=[[0,0.5],[1,0.5]];portConstraint=eastwest;top=0;left=0;right=0;bottom=0;" parent="2V5wfSB69vU004kyjfql-101" vertex="1">
          <mxGeometry y="120" width="180" height="30" as="geometry" />
        </mxCell>
        <mxCell id="2V5wfSB69vU004kyjfql-115" value="" style="shape=partialRectangle;connectable=0;fillColor=none;top=0;left=0;bottom=0;right=0;editable=1;overflow=hidden;" parent="2V5wfSB69vU004kyjfql-114" vertex="1">
          <mxGeometry width="30" height="30" as="geometry">
            <mxRectangle width="30" height="30" as="alternateBounds" />
          </mxGeometry>
        </mxCell>
        <mxCell id="2V5wfSB69vU004kyjfql-116" value="value" style="shape=partialRectangle;connectable=0;fillColor=none;top=0;left=0;bottom=0;right=0;align=left;spacingLeft=6;overflow=hidden;" parent="2V5wfSB69vU004kyjfql-114" vertex="1">
          <mxGeometry x="30" width="150" height="30" as="geometry">
            <mxRectangle width="150" height="30" as="alternateBounds" />
          </mxGeometry>
        </mxCell>
        <mxCell id="2V5wfSB69vU004kyjfql-105" value="" style="shape=tableRow;horizontal=0;startSize=0;swimlaneHead=0;swimlaneBody=0;fillColor=none;collapsible=0;dropTarget=0;points=[[0,0.5],[1,0.5]];portConstraint=eastwest;top=0;left=0;right=0;bottom=0;" parent="2V5wfSB69vU004kyjfql-101" vertex="1">
          <mxGeometry y="150" width="180" height="30" as="geometry" />
        </mxCell>
        <mxCell id="2V5wfSB69vU004kyjfql-106" value="FK" style="shape=partialRectangle;connectable=0;fillColor=none;top=0;left=0;bottom=0;right=0;editable=1;overflow=hidden;" parent="2V5wfSB69vU004kyjfql-105" vertex="1">
          <mxGeometry width="30" height="30" as="geometry">
            <mxRectangle width="30" height="30" as="alternateBounds" />
          </mxGeometry>
        </mxCell>
        <mxCell id="2V5wfSB69vU004kyjfql-107" value="owner" style="shape=partialRectangle;connectable=0;fillColor=none;top=0;left=0;bottom=0;right=0;align=left;spacingLeft=6;overflow=hidden;" parent="2V5wfSB69vU004kyjfql-105" vertex="1">
          <mxGeometry x="30" width="150" height="30" as="geometry">
            <mxRectangle width="150" height="30" as="alternateBounds" />
          </mxGeometry>
        </mxCell>
        <mxCell id="Bpu6Eearpk1tLVcVZNhn-134" value="Goal" style="shape=table;startSize=30;container=1;collapsible=1;childLayout=tableLayout;fixedRows=1;rowLines=0;fontStyle=1;align=center;resizeLast=1;" parent="1" vertex="1">
          <mxGeometry x="-320" y="840" width="180" height="180" as="geometry" />
        </mxCell>
        <mxCell id="Bpu6Eearpk1tLVcVZNhn-135" value="" style="shape=tableRow;horizontal=0;startSize=0;swimlaneHead=0;swimlaneBody=0;fillColor=none;collapsible=0;dropTarget=0;points=[[0,0.5],[1,0.5]];portConstraint=eastwest;top=0;left=0;right=0;bottom=1;" parent="Bpu6Eearpk1tLVcVZNhn-134" vertex="1">
          <mxGeometry y="30" width="180" height="30" as="geometry" />
        </mxCell>
        <mxCell id="Bpu6Eearpk1tLVcVZNhn-136" value="PK" style="shape=partialRectangle;connectable=0;fillColor=none;top=0;left=0;bottom=0;right=0;fontStyle=1;overflow=hidden;" parent="Bpu6Eearpk1tLVcVZNhn-135" vertex="1">
          <mxGeometry width="30" height="30" as="geometry">
            <mxRectangle width="30" height="30" as="alternateBounds" />
          </mxGeometry>
        </mxCell>
        <mxCell id="Bpu6Eearpk1tLVcVZNhn-137" value="id" style="shape=partialRectangle;connectable=0;fillColor=none;top=0;left=0;bottom=0;right=0;align=left;spacingLeft=6;fontStyle=5;overflow=hidden;" parent="Bpu6Eearpk1tLVcVZNhn-135" vertex="1">
          <mxGeometry x="30" width="150" height="30" as="geometry">
            <mxRectangle width="150" height="30" as="alternateBounds" />
          </mxGeometry>
        </mxCell>
        <mxCell id="Bpu6Eearpk1tLVcVZNhn-147" value="" style="shape=tableRow;horizontal=0;startSize=0;swimlaneHead=0;swimlaneBody=0;fillColor=none;collapsible=0;dropTarget=0;points=[[0,0.5],[1,0.5]];portConstraint=eastwest;top=0;left=0;right=0;bottom=0;" parent="Bpu6Eearpk1tLVcVZNhn-134" vertex="1">
          <mxGeometry y="60" width="180" height="30" as="geometry" />
        </mxCell>
        <mxCell id="Bpu6Eearpk1tLVcVZNhn-148" value="" style="shape=partialRectangle;connectable=0;fillColor=none;top=0;left=0;bottom=0;right=0;editable=1;overflow=hidden;" parent="Bpu6Eearpk1tLVcVZNhn-147" vertex="1">
          <mxGeometry width="30" height="30" as="geometry">
            <mxRectangle width="30" height="30" as="alternateBounds" />
          </mxGeometry>
        </mxCell>
        <mxCell id="Bpu6Eearpk1tLVcVZNhn-149" value="description" style="shape=partialRectangle;connectable=0;fillColor=none;top=0;left=0;bottom=0;right=0;align=left;spacingLeft=6;overflow=hidden;" parent="Bpu6Eearpk1tLVcVZNhn-147" vertex="1">
          <mxGeometry x="30" width="150" height="30" as="geometry">
            <mxRectangle width="150" height="30" as="alternateBounds" />
          </mxGeometry>
        </mxCell>
        <mxCell id="Bpu6Eearpk1tLVcVZNhn-150" value="" style="shape=tableRow;horizontal=0;startSize=0;swimlaneHead=0;swimlaneBody=0;fillColor=none;collapsible=0;dropTarget=0;points=[[0,0.5],[1,0.5]];portConstraint=eastwest;top=0;left=0;right=0;bottom=0;" parent="Bpu6Eearpk1tLVcVZNhn-134" vertex="1">
          <mxGeometry y="90" width="180" height="30" as="geometry" />
        </mxCell>
        <mxCell id="Bpu6Eearpk1tLVcVZNhn-151" value="" style="shape=partialRectangle;connectable=0;fillColor=none;top=0;left=0;bottom=0;right=0;editable=1;overflow=hidden;" parent="Bpu6Eearpk1tLVcVZNhn-150" vertex="1">
          <mxGeometry width="30" height="30" as="geometry">
            <mxRectangle width="30" height="30" as="alternateBounds" />
          </mxGeometry>
        </mxCell>
        <mxCell id="Bpu6Eearpk1tLVcVZNhn-152" value="target" style="shape=partialRectangle;connectable=0;fillColor=none;top=0;left=0;bottom=0;right=0;align=left;spacingLeft=6;overflow=hidden;" parent="Bpu6Eearpk1tLVcVZNhn-150" vertex="1">
          <mxGeometry x="30" width="150" height="30" as="geometry">
            <mxRectangle width="150" height="30" as="alternateBounds" />
          </mxGeometry>
        </mxCell>
        <mxCell id="Bpu6Eearpk1tLVcVZNhn-153" value="" style="shape=tableRow;horizontal=0;startSize=0;swimlaneHead=0;swimlaneBody=0;fillColor=none;collapsible=0;dropTarget=0;points=[[0,0.5],[1,0.5]];portConstraint=eastwest;top=0;left=0;right=0;bottom=0;" parent="Bpu6Eearpk1tLVcVZNhn-134" vertex="1">
          <mxGeometry y="120" width="180" height="30" as="geometry" />
        </mxCell>
        <mxCell id="Bpu6Eearpk1tLVcVZNhn-154" value="FK" style="shape=partialRectangle;connectable=0;fillColor=none;top=0;left=0;bottom=0;right=0;editable=1;overflow=hidden;" parent="Bpu6Eearpk1tLVcVZNhn-153" vertex="1">
          <mxGeometry width="30" height="30" as="geometry">
            <mxRectangle width="30" height="30" as="alternateBounds" />
          </mxGeometry>
        </mxCell>
        <mxCell id="Bpu6Eearpk1tLVcVZNhn-155" value="account" style="shape=partialRectangle;connectable=0;fillColor=none;top=0;left=0;bottom=0;right=0;align=left;spacingLeft=6;overflow=hidden;" parent="Bpu6Eearpk1tLVcVZNhn-153" vertex="1">
          <mxGeometry x="30" width="150" height="30" as="geometry">
            <mxRectangle width="150" height="30" as="alternateBounds" />
          </mxGeometry>
        </mxCell>
        <mxCell id="Bpu6Eearpk1tLVcVZNhn-138" value="" style="shape=tableRow;horizontal=0;startSize=0;swimlaneHead=0;swimlaneBody=0;fillColor=none;collapsible=0;dropTarget=0;points=[[0,0.5],[1,0.5]];portConstraint=eastwest;top=0;left=0;right=0;bottom=0;" parent="Bpu6Eearpk1tLVcVZNhn-134" vertex="1">
          <mxGeometry y="150" width="180" height="30" as="geometry" />
        </mxCell>
        <mxCell id="Bpu6Eearpk1tLVcVZNhn-139" value="FK" style="shape=partialRectangle;connectable=0;fillColor=none;top=0;left=0;bottom=0;right=0;editable=1;overflow=hidden;" parent="Bpu6Eearpk1tLVcVZNhn-138" vertex="1">
          <mxGeometry width="30" height="30" as="geometry">
            <mxRectangle width="30" height="30" as="alternateBounds" />
          </mxGeometry>
        </mxCell>
        <mxCell id="Bpu6Eearpk1tLVcVZNhn-140" value="owner" style="shape=partialRectangle;connectable=0;fillColor=none;top=0;left=0;bottom=0;right=0;align=left;spacingLeft=6;overflow=hidden;" parent="Bpu6Eearpk1tLVcVZNhn-138" vertex="1">
          <mxGeometry x="30" width="150" height="30" as="geometry">
            <mxRectangle width="150" height="30" as="alternateBounds" />
          </mxGeometry>
        </mxCell>
        <mxCell id="6v17F1DsMaT6wTxfP7VA-1" style="edgeStyle=orthogonalEdgeStyle;rounded=0;orthogonalLoop=1;jettySize=auto;html=1;entryX=0;entryY=0.5;entryDx=0;entryDy=0;endArrow=ERmany;endFill=0;" edge="1" parent="1" source="Bpu6Eearpk1tLVcVZNhn-44" target="Bpu6Eearpk1tLVcVZNhn-138">
          <mxGeometry relative="1" as="geometry" />
        </mxCell>
        <mxCell id="6v17F1DsMaT6wTxfP7VA-2" style="edgeStyle=orthogonalEdgeStyle;rounded=0;orthogonalLoop=1;jettySize=auto;html=1;entryX=0;entryY=0.5;entryDx=0;entryDy=0;endArrow=ERmany;endFill=0;" edge="1" parent="1" source="Bpu6Eearpk1tLVcVZNhn-44" target="2V5wfSB69vU004kyjfql-105">
          <mxGeometry relative="1" as="geometry">
            <Array as="points">
              <mxPoint x="-110" y="1125" />
              <mxPoint x="-110" y="1005" />
            </Array>
          </mxGeometry>
        </mxCell>
        <mxCell id="6v17F1DsMaT6wTxfP7VA-5" style="edgeStyle=orthogonalEdgeStyle;rounded=0;orthogonalLoop=1;jettySize=auto;html=1;entryX=1;entryY=0.5;entryDx=0;entryDy=0;startArrow=ERmany;startFill=0;endArrow=none;endFill=0;" edge="1" parent="1" source="2V5wfSB69vU004kyjfql-81" target="Bpu6Eearpk1tLVcVZNhn-78">
          <mxGeometry relative="1" as="geometry" />
        </mxCell>
        <mxCell id="6v17F1DsMaT6wTxfP7VA-7" style="edgeStyle=orthogonalEdgeStyle;rounded=0;orthogonalLoop=1;jettySize=auto;html=1;entryX=0;entryY=0.5;entryDx=0;entryDy=0;endArrow=none;endFill=0;" edge="1" parent="1" source="Bpu6Eearpk1tLVcVZNhn-153" target="2V5wfSB69vU004kyjfql-102">
          <mxGeometry relative="1" as="geometry" />
        </mxCell>
        <mxCell id="6v17F1DsMaT6wTxfP7VA-8" style="edgeStyle=orthogonalEdgeStyle;rounded=0;orthogonalLoop=1;jettySize=auto;html=1;entryX=0;entryY=0.5;entryDx=0;entryDy=0;endArrow=ERmany;endFill=0;" edge="1" parent="1" source="Bpu6Eearpk1tLVcVZNhn-44" target="2V5wfSB69vU004kyjfql-78">
          <mxGeometry relative="1" as="geometry" />
        </mxCell>
        <mxCell id="6v17F1DsMaT6wTxfP7VA-9" style="edgeStyle=orthogonalEdgeStyle;rounded=0;orthogonalLoop=1;jettySize=auto;html=1;entryX=0;entryY=0.5;entryDx=0;entryDy=0;startArrow=ERmany;startFill=0;endArrow=none;endFill=0;" edge="1" parent="1" source="2V5wfSB69vU004kyjfql-87" target="2V5wfSB69vU004kyjfql-102">
          <mxGeometry relative="1" as="geometry">
            <Array as="points">
              <mxPoint x="-120" y="685" />
              <mxPoint x="-120" y="885" />
            </Array>
          </mxGeometry>
        </mxCell>
        <mxCell id="6v17F1DsMaT6wTxfP7VA-11" style="edgeStyle=orthogonalEdgeStyle;rounded=0;orthogonalLoop=1;jettySize=auto;html=1;entryX=0;entryY=0.5;entryDx=0;entryDy=0;startArrow=ERmany;startFill=0;endArrow=none;endFill=0;" edge="1" parent="1" source="2V5wfSB69vU004kyjfql-84" target="2V5wfSB69vU004kyjfql-102">
          <mxGeometry relative="1" as="geometry">
            <Array as="points">
              <mxPoint x="-100" y="655" />
              <mxPoint x="-100" y="885" />
            </Array>
          </mxGeometry>
        </mxCell>
        <mxCell id="6v17F1DsMaT6wTxfP7VA-13" style="edgeStyle=orthogonalEdgeStyle;rounded=0;orthogonalLoop=1;jettySize=auto;html=1;entryX=0;entryY=0.5;entryDx=0;entryDy=0;startArrow=ERmany;startFill=0;endArrow=none;endFill=0;" edge="1" parent="1" source="Bpu6Eearpk1tLVcVZNhn-91" target="Bpu6Eearpk1tLVcVZNhn-2">
          <mxGeometry relative="1" as="geometry" />
        </mxCell>
        <mxCell id="6v17F1DsMaT6wTxfP7VA-15" style="edgeStyle=orthogonalEdgeStyle;rounded=0;orthogonalLoop=1;jettySize=auto;html=1;entryX=0;entryY=0.5;entryDx=0;entryDy=0;startArrow=ERmany;startFill=0;endArrow=none;endFill=0;" edge="1" parent="1" source="2V5wfSB69vU004kyjfql-108" target="Bpu6Eearpk1tLVcVZNhn-2">
          <mxGeometry relative="1" as="geometry">
            <Array as="points">
              <mxPoint x="120" y="915" />
              <mxPoint x="120" y="665" />
            </Array>
          </mxGeometry>
        </mxCell>
        <mxCell id="6v17F1DsMaT6wTxfP7VA-19" value="Exchange" style="shape=table;startSize=30;container=1;collapsible=1;childLayout=tableLayout;fixedRows=1;rowLines=0;fontStyle=1;align=center;resizeLast=1;" vertex="1" parent="1">
          <mxGeometry x="414" y="630" width="180" height="150" as="geometry" />
        </mxCell>
        <mxCell id="6v17F1DsMaT6wTxfP7VA-20" value="" style="shape=tableRow;horizontal=0;startSize=0;swimlaneHead=0;swimlaneBody=0;fillColor=none;collapsible=0;dropTarget=0;points=[[0,0.5],[1,0.5]];portConstraint=eastwest;top=0;left=0;right=0;bottom=1;" vertex="1" parent="6v17F1DsMaT6wTxfP7VA-19">
          <mxGeometry y="30" width="180" height="30" as="geometry" />
        </mxCell>
        <mxCell id="6v17F1DsMaT6wTxfP7VA-21" value="PK" style="shape=partialRectangle;connectable=0;fillColor=none;top=0;left=0;bottom=0;right=0;fontStyle=1;overflow=hidden;" vertex="1" parent="6v17F1DsMaT6wTxfP7VA-20">
          <mxGeometry width="30" height="30" as="geometry">
            <mxRectangle width="30" height="30" as="alternateBounds" />
          </mxGeometry>
        </mxCell>
        <mxCell id="6v17F1DsMaT6wTxfP7VA-22" value="id" style="shape=partialRectangle;connectable=0;fillColor=none;top=0;left=0;bottom=0;right=0;align=left;spacingLeft=6;fontStyle=5;overflow=hidden;" vertex="1" parent="6v17F1DsMaT6wTxfP7VA-20">
          <mxGeometry x="30" width="150" height="30" as="geometry">
            <mxRectangle width="150" height="30" as="alternateBounds" />
          </mxGeometry>
        </mxCell>
        <mxCell id="6v17F1DsMaT6wTxfP7VA-23" value="" style="shape=tableRow;horizontal=0;startSize=0;swimlaneHead=0;swimlaneBody=0;fillColor=none;collapsible=0;dropTarget=0;points=[[0,0.5],[1,0.5]];portConstraint=eastwest;top=0;left=0;right=0;bottom=0;" vertex="1" parent="6v17F1DsMaT6wTxfP7VA-19">
          <mxGeometry y="60" width="180" height="30" as="geometry" />
        </mxCell>
        <mxCell id="6v17F1DsMaT6wTxfP7VA-24" value="FK" style="shape=partialRectangle;connectable=0;fillColor=none;top=0;left=0;bottom=0;right=0;editable=1;overflow=hidden;" vertex="1" parent="6v17F1DsMaT6wTxfP7VA-23">
          <mxGeometry width="30" height="30" as="geometry">
            <mxRectangle width="30" height="30" as="alternateBounds" />
          </mxGeometry>
        </mxCell>
        <mxCell id="6v17F1DsMaT6wTxfP7VA-25" value="from" style="shape=partialRectangle;connectable=0;fillColor=none;top=0;left=0;bottom=0;right=0;align=left;spacingLeft=6;overflow=hidden;" vertex="1" parent="6v17F1DsMaT6wTxfP7VA-23">
          <mxGeometry x="30" width="150" height="30" as="geometry">
            <mxRectangle width="150" height="30" as="alternateBounds" />
          </mxGeometry>
        </mxCell>
        <mxCell id="6v17F1DsMaT6wTxfP7VA-26" value="" style="shape=tableRow;horizontal=0;startSize=0;swimlaneHead=0;swimlaneBody=0;fillColor=none;collapsible=0;dropTarget=0;points=[[0,0.5],[1,0.5]];portConstraint=eastwest;top=0;left=0;right=0;bottom=0;" vertex="1" parent="6v17F1DsMaT6wTxfP7VA-19">
          <mxGeometry y="90" width="180" height="30" as="geometry" />
        </mxCell>
        <mxCell id="6v17F1DsMaT6wTxfP7VA-27" value="FK" style="shape=partialRectangle;connectable=0;fillColor=none;top=0;left=0;bottom=0;right=0;editable=1;overflow=hidden;" vertex="1" parent="6v17F1DsMaT6wTxfP7VA-26">
          <mxGeometry width="30" height="30" as="geometry">
            <mxRectangle width="30" height="30" as="alternateBounds" />
          </mxGeometry>
        </mxCell>
        <mxCell id="6v17F1DsMaT6wTxfP7VA-28" value="to" style="shape=partialRectangle;connectable=0;fillColor=none;top=0;left=0;bottom=0;right=0;align=left;spacingLeft=6;overflow=hidden;" vertex="1" parent="6v17F1DsMaT6wTxfP7VA-26">
          <mxGeometry x="30" width="150" height="30" as="geometry">
            <mxRectangle width="150" height="30" as="alternateBounds" />
          </mxGeometry>
        </mxCell>
        <mxCell id="6v17F1DsMaT6wTxfP7VA-29" value="" style="shape=tableRow;horizontal=0;startSize=0;swimlaneHead=0;swimlaneBody=0;fillColor=none;collapsible=0;dropTarget=0;points=[[0,0.5],[1,0.5]];portConstraint=eastwest;top=0;left=0;right=0;bottom=0;" vertex="1" parent="6v17F1DsMaT6wTxfP7VA-19">
          <mxGeometry y="120" width="180" height="30" as="geometry" />
        </mxCell>
        <mxCell id="6v17F1DsMaT6wTxfP7VA-30" value="" style="shape=partialRectangle;connectable=0;fillColor=none;top=0;left=0;bottom=0;right=0;editable=1;overflow=hidden;" vertex="1" parent="6v17F1DsMaT6wTxfP7VA-29">
          <mxGeometry width="30" height="30" as="geometry">
            <mxRectangle width="30" height="30" as="alternateBounds" />
          </mxGeometry>
        </mxCell>
        <mxCell id="6v17F1DsMaT6wTxfP7VA-31" value="factor" style="shape=partialRectangle;connectable=0;fillColor=none;top=0;left=0;bottom=0;right=0;align=left;spacingLeft=6;overflow=hidden;" vertex="1" parent="6v17F1DsMaT6wTxfP7VA-29">
          <mxGeometry x="30" width="150" height="30" as="geometry">
            <mxRectangle width="150" height="30" as="alternateBounds" />
          </mxGeometry>
        </mxCell>
        <mxCell id="6v17F1DsMaT6wTxfP7VA-35" style="edgeStyle=orthogonalEdgeStyle;rounded=0;orthogonalLoop=1;jettySize=auto;html=1;entryX=0;entryY=0.5;entryDx=0;entryDy=0;endArrow=ERmany;endFill=0;" edge="1" parent="1" source="Bpu6Eearpk1tLVcVZNhn-2" target="6v17F1DsMaT6wTxfP7VA-23">
          <mxGeometry relative="1" as="geometry" />
        </mxCell>
        <mxCell id="6v17F1DsMaT6wTxfP7VA-36" style="edgeStyle=orthogonalEdgeStyle;rounded=0;orthogonalLoop=1;jettySize=auto;html=1;entryX=0;entryY=0.5;entryDx=0;entryDy=0;endArrow=ERmany;endFill=0;" edge="1" parent="1" source="Bpu6Eearpk1tLVcVZNhn-2" target="6v17F1DsMaT6wTxfP7VA-26">
          <mxGeometry relative="1" as="geometry" />
        </mxCell>
        <mxCell id="6v17F1DsMaT6wTxfP7VA-37" style="edgeStyle=orthogonalEdgeStyle;rounded=0;orthogonalLoop=1;jettySize=auto;html=1;entryX=0;entryY=0.5;entryDx=0;entryDy=0;endArrow=ERmany;endFill=0;" edge="1" parent="1" source="Bpu6Eearpk1tLVcVZNhn-44" target="Bpu6Eearpk1tLVcVZNhn-88">
          <mxGeometry relative="1" as="geometry">
            <Array as="points">
              <mxPoint x="110" y="1125" />
              <mxPoint x="110" y="1065" />
            </Array>
          </mxGeometry>
        </mxCell>
      </root>
    </mxGraphModel>
  </diagram>
  <diagram id="SOHVq5rQ6DVzPew7fqTD" name="Страница — 3">
    <mxGraphModel dx="2261" dy="844" grid="1" gridSize="10" guides="1" tooltips="1" connect="1" arrows="1" fold="1" page="1" pageScale="1" pageWidth="827" pageHeight="1169" math="0" shadow="0">
      <root>
        <mxCell id="0" />
        <mxCell id="1" parent="0" />
        <mxCell id="KOz0zT9MoUTCIAjUpcL3-28" style="rounded=0;orthogonalLoop=1;jettySize=auto;html=1;endArrow=none;endFill=0;" edge="1" parent="1" source="KOz0zT9MoUTCIAjUpcL3-1" target="KOz0zT9MoUTCIAjUpcL3-13">
          <mxGeometry relative="1" as="geometry" />
        </mxCell>
        <mxCell id="KOz0zT9MoUTCIAjUpcL3-29" style="rounded=0;orthogonalLoop=1;jettySize=auto;html=1;entryX=0;entryY=0.5;entryDx=0;entryDy=0;endArrow=none;endFill=0;" edge="1" parent="1" source="KOz0zT9MoUTCIAjUpcL3-1" target="KOz0zT9MoUTCIAjUpcL3-12">
          <mxGeometry relative="1" as="geometry" />
        </mxCell>
        <mxCell id="KOz0zT9MoUTCIAjUpcL3-30" style="rounded=0;orthogonalLoop=1;jettySize=auto;html=1;entryX=0;entryY=0.5;entryDx=0;entryDy=0;endArrow=none;endFill=0;" edge="1" parent="1" source="KOz0zT9MoUTCIAjUpcL3-1" target="KOz0zT9MoUTCIAjUpcL3-11">
          <mxGeometry relative="1" as="geometry" />
        </mxCell>
        <mxCell id="KOz0zT9MoUTCIAjUpcL3-31" style="rounded=0;orthogonalLoop=1;jettySize=auto;html=1;entryX=0;entryY=0.5;entryDx=0;entryDy=0;endArrow=none;endFill=0;" edge="1" parent="1" source="KOz0zT9MoUTCIAjUpcL3-1" target="KOz0zT9MoUTCIAjUpcL3-10">
          <mxGeometry relative="1" as="geometry" />
        </mxCell>
        <mxCell id="KOz0zT9MoUTCIAjUpcL3-32" style="rounded=0;orthogonalLoop=1;jettySize=auto;html=1;entryX=0;entryY=0.5;entryDx=0;entryDy=0;endArrow=none;endFill=0;" edge="1" parent="1" source="KOz0zT9MoUTCIAjUpcL3-1" target="KOz0zT9MoUTCIAjUpcL3-9">
          <mxGeometry relative="1" as="geometry" />
        </mxCell>
        <mxCell id="KOz0zT9MoUTCIAjUpcL3-33" style="rounded=0;orthogonalLoop=1;jettySize=auto;html=1;entryX=0;entryY=0.5;entryDx=0;entryDy=0;endArrow=none;endFill=0;" edge="1" parent="1" source="KOz0zT9MoUTCIAjUpcL3-1" target="KOz0zT9MoUTCIAjUpcL3-14">
          <mxGeometry relative="1" as="geometry" />
        </mxCell>
        <mxCell id="KOz0zT9MoUTCIAjUpcL3-35" style="rounded=0;orthogonalLoop=1;jettySize=auto;html=1;entryX=0;entryY=0.5;entryDx=0;entryDy=0;endArrow=none;endFill=0;" edge="1" parent="1" source="KOz0zT9MoUTCIAjUpcL3-1" target="KOz0zT9MoUTCIAjUpcL3-22">
          <mxGeometry relative="1" as="geometry" />
        </mxCell>
        <mxCell id="KOz0zT9MoUTCIAjUpcL3-36" style="rounded=0;orthogonalLoop=1;jettySize=auto;html=1;entryX=0;entryY=0.5;entryDx=0;entryDy=0;endArrow=none;endFill=0;" edge="1" parent="1" source="KOz0zT9MoUTCIAjUpcL3-1" target="KOz0zT9MoUTCIAjUpcL3-23">
          <mxGeometry relative="1" as="geometry" />
        </mxCell>
        <mxCell id="KOz0zT9MoUTCIAjUpcL3-37" style="rounded=0;orthogonalLoop=1;jettySize=auto;html=1;entryX=0;entryY=0.5;entryDx=0;entryDy=0;endArrow=none;endFill=0;" edge="1" parent="1" source="KOz0zT9MoUTCIAjUpcL3-1" target="KOz0zT9MoUTCIAjUpcL3-25">
          <mxGeometry relative="1" as="geometry" />
        </mxCell>
        <mxCell id="KOz0zT9MoUTCIAjUpcL3-41" style="rounded=0;orthogonalLoop=1;jettySize=auto;html=1;entryX=1;entryY=0.5;entryDx=0;entryDy=0;endArrow=none;endFill=0;" edge="1" parent="1" source="KOz0zT9MoUTCIAjUpcL3-1" target="KOz0zT9MoUTCIAjUpcL3-4">
          <mxGeometry relative="1" as="geometry" />
        </mxCell>
        <mxCell id="KOz0zT9MoUTCIAjUpcL3-42" style="rounded=0;orthogonalLoop=1;jettySize=auto;html=1;entryX=1;entryY=0.5;entryDx=0;entryDy=0;endArrow=none;endFill=0;" edge="1" parent="1" source="KOz0zT9MoUTCIAjUpcL3-1" target="KOz0zT9MoUTCIAjUpcL3-6">
          <mxGeometry relative="1" as="geometry" />
        </mxCell>
        <mxCell id="KOz0zT9MoUTCIAjUpcL3-43" style="rounded=0;orthogonalLoop=1;jettySize=auto;html=1;entryX=1;entryY=0.5;entryDx=0;entryDy=0;endArrow=none;endFill=0;" edge="1" parent="1" source="KOz0zT9MoUTCIAjUpcL3-1" target="KOz0zT9MoUTCIAjUpcL3-7">
          <mxGeometry relative="1" as="geometry" />
        </mxCell>
        <mxCell id="KOz0zT9MoUTCIAjUpcL3-44" style="rounded=0;orthogonalLoop=1;jettySize=auto;html=1;entryX=1;entryY=0.5;entryDx=0;entryDy=0;endArrow=none;endFill=0;" edge="1" parent="1" source="KOz0zT9MoUTCIAjUpcL3-1" target="KOz0zT9MoUTCIAjUpcL3-17">
          <mxGeometry relative="1" as="geometry" />
        </mxCell>
        <mxCell id="KOz0zT9MoUTCIAjUpcL3-45" style="rounded=0;orthogonalLoop=1;jettySize=auto;html=1;entryX=1;entryY=0.5;entryDx=0;entryDy=0;endArrow=none;endFill=0;" edge="1" parent="1" source="KOz0zT9MoUTCIAjUpcL3-1" target="KOz0zT9MoUTCIAjUpcL3-8">
          <mxGeometry relative="1" as="geometry" />
        </mxCell>
        <mxCell id="KOz0zT9MoUTCIAjUpcL3-46" style="rounded=0;orthogonalLoop=1;jettySize=auto;html=1;entryX=1;entryY=0.5;entryDx=0;entryDy=0;endArrow=none;endFill=0;" edge="1" parent="1" source="KOz0zT9MoUTCIAjUpcL3-1" target="KOz0zT9MoUTCIAjUpcL3-18">
          <mxGeometry relative="1" as="geometry" />
        </mxCell>
        <mxCell id="KOz0zT9MoUTCIAjUpcL3-47" style="rounded=0;orthogonalLoop=1;jettySize=auto;html=1;entryX=1;entryY=0.5;entryDx=0;entryDy=0;endArrow=none;endFill=0;" edge="1" parent="1" source="KOz0zT9MoUTCIAjUpcL3-1" target="KOz0zT9MoUTCIAjUpcL3-19">
          <mxGeometry relative="1" as="geometry" />
        </mxCell>
        <mxCell id="KOz0zT9MoUTCIAjUpcL3-1" value="Пользователь" style="shape=umlActor;verticalLabelPosition=bottom;verticalAlign=top;html=1;outlineConnect=0;" vertex="1" parent="1">
          <mxGeometry x="440" y="570" width="30" height="60" as="geometry" />
        </mxCell>
        <mxCell id="KOz0zT9MoUTCIAjUpcL3-4" value="Авторизоваться" style="ellipse;whiteSpace=wrap;html=1;" vertex="1" parent="1">
          <mxGeometry x="220" y="300" width="180" height="50" as="geometry" />
        </mxCell>
        <mxCell id="KOz0zT9MoUTCIAjUpcL3-6" value="Просмотреть валюты" style="ellipse;whiteSpace=wrap;html=1;" vertex="1" parent="1">
          <mxGeometry x="220" y="360" width="180" height="50" as="geometry" />
        </mxCell>
        <mxCell id="KOz0zT9MoUTCIAjUpcL3-7" value="Просмотреть обменные курсы" style="ellipse;whiteSpace=wrap;html=1;" vertex="1" parent="1">
          <mxGeometry x="220" y="420" width="180" height="50" as="geometry" />
        </mxCell>
        <mxCell id="KOz0zT9MoUTCIAjUpcL3-8" value="Просмотреть категории" style="ellipse;whiteSpace=wrap;html=1;" vertex="1" parent="1">
          <mxGeometry x="220" y="480" width="180" height="50" as="geometry" />
        </mxCell>
        <mxCell id="KOz0zT9MoUTCIAjUpcL3-9" value="Создать транзакцию" style="ellipse;whiteSpace=wrap;html=1;" vertex="1" parent="1">
          <mxGeometry x="570" y="250" width="180" height="50" as="geometry" />
        </mxCell>
        <mxCell id="KOz0zT9MoUTCIAjUpcL3-10" value="Просмотреть транзакцию" style="ellipse;whiteSpace=wrap;html=1;" vertex="1" parent="1">
          <mxGeometry x="570" y="310" width="180" height="50" as="geometry" />
        </mxCell>
        <mxCell id="KOz0zT9MoUTCIAjUpcL3-11" value="Удалить транзакцию" style="ellipse;whiteSpace=wrap;html=1;" vertex="1" parent="1">
          <mxGeometry x="570" y="370" width="180" height="50" as="geometry" />
        </mxCell>
        <mxCell id="KOz0zT9MoUTCIAjUpcL3-39" style="edgeStyle=orthogonalEdgeStyle;rounded=0;orthogonalLoop=1;jettySize=auto;html=1;entryX=0;entryY=0.5;entryDx=0;entryDy=0;" edge="1" parent="1" source="KOz0zT9MoUTCIAjUpcL3-12" target="KOz0zT9MoUTCIAjUpcL3-16">
          <mxGeometry relative="1" as="geometry" />
        </mxCell>
        <mxCell id="KOz0zT9MoUTCIAjUpcL3-12" value="Просмотреть бюджет" style="ellipse;whiteSpace=wrap;html=1;" vertex="1" parent="1">
          <mxGeometry x="570" y="430" width="180" height="50" as="geometry" />
        </mxCell>
        <mxCell id="KOz0zT9MoUTCIAjUpcL3-13" value="Создать бюджет" style="ellipse;whiteSpace=wrap;html=1;" vertex="1" parent="1">
          <mxGeometry x="570" y="490" width="180" height="50" as="geometry" />
        </mxCell>
        <mxCell id="KOz0zT9MoUTCIAjUpcL3-55" style="edgeStyle=orthogonalEdgeStyle;rounded=0;orthogonalLoop=1;jettySize=auto;html=1;entryX=0;entryY=0.5;entryDx=0;entryDy=0;" edge="1" parent="1" source="KOz0zT9MoUTCIAjUpcL3-14" target="KOz0zT9MoUTCIAjUpcL3-15">
          <mxGeometry relative="1" as="geometry" />
        </mxCell>
        <mxCell id="KOz0zT9MoUTCIAjUpcL3-14" value="Изменить бюджет" style="ellipse;whiteSpace=wrap;html=1;" vertex="1" parent="1">
          <mxGeometry x="570" y="550" width="180" height="50" as="geometry" />
        </mxCell>
        <mxCell id="KOz0zT9MoUTCIAjUpcL3-15" value="Удалить бюджет" style="ellipse;whiteSpace=wrap;html=1;" vertex="1" parent="1">
          <mxGeometry x="780" y="550" width="180" height="50" as="geometry" />
        </mxCell>
        <mxCell id="KOz0zT9MoUTCIAjUpcL3-16" value="Просмотреть статус бюджета" style="ellipse;whiteSpace=wrap;html=1;" vertex="1" parent="1">
          <mxGeometry x="780" y="430" width="180" height="50" as="geometry" />
        </mxCell>
        <mxCell id="KOz0zT9MoUTCIAjUpcL3-40" style="edgeStyle=orthogonalEdgeStyle;rounded=0;orthogonalLoop=1;jettySize=auto;html=1;entryX=1;entryY=0.5;entryDx=0;entryDy=0;" edge="1" parent="1" source="KOz0zT9MoUTCIAjUpcL3-17" target="KOz0zT9MoUTCIAjUpcL3-21">
          <mxGeometry relative="1" as="geometry" />
        </mxCell>
        <mxCell id="KOz0zT9MoUTCIAjUpcL3-17" value="Просмотреть цель" style="ellipse;whiteSpace=wrap;html=1;" vertex="1" parent="1">
          <mxGeometry x="220" y="540" width="180" height="50" as="geometry" />
        </mxCell>
        <mxCell id="KOz0zT9MoUTCIAjUpcL3-18" value="Создать цель" style="ellipse;whiteSpace=wrap;html=1;" vertex="1" parent="1">
          <mxGeometry x="220" y="600" width="180" height="50" as="geometry" />
        </mxCell>
        <mxCell id="KOz0zT9MoUTCIAjUpcL3-54" style="edgeStyle=orthogonalEdgeStyle;rounded=0;orthogonalLoop=1;jettySize=auto;html=1;entryX=1;entryY=0.5;entryDx=0;entryDy=0;" edge="1" parent="1" source="KOz0zT9MoUTCIAjUpcL3-19" target="KOz0zT9MoUTCIAjUpcL3-20">
          <mxGeometry relative="1" as="geometry" />
        </mxCell>
        <mxCell id="KOz0zT9MoUTCIAjUpcL3-19" value="Изменить цель" style="ellipse;whiteSpace=wrap;html=1;" vertex="1" parent="1">
          <mxGeometry x="220" y="660" width="180" height="50" as="geometry" />
        </mxCell>
        <mxCell id="KOz0zT9MoUTCIAjUpcL3-20" value="Удалить цель" style="ellipse;whiteSpace=wrap;html=1;" vertex="1" parent="1">
          <mxGeometry x="10" y="660" width="180" height="50" as="geometry" />
        </mxCell>
        <mxCell id="KOz0zT9MoUTCIAjUpcL3-21" value="Просмотреть статус цели" style="ellipse;whiteSpace=wrap;html=1;" vertex="1" parent="1">
          <mxGeometry x="10" y="540" width="180" height="50" as="geometry" />
        </mxCell>
        <mxCell id="KOz0zT9MoUTCIAjUpcL3-22" value="Просмотреть счёт" style="ellipse;whiteSpace=wrap;html=1;" vertex="1" parent="1">
          <mxGeometry x="570" y="610" width="180" height="50" as="geometry" />
        </mxCell>
        <mxCell id="KOz0zT9MoUTCIAjUpcL3-23" value="Создать счёт" style="ellipse;whiteSpace=wrap;html=1;" vertex="1" parent="1">
          <mxGeometry x="570" y="670" width="180" height="50" as="geometry" />
        </mxCell>
        <mxCell id="KOz0zT9MoUTCIAjUpcL3-24" value="Удалить счёт" style="ellipse;whiteSpace=wrap;html=1;" vertex="1" parent="1">
          <mxGeometry x="780" y="735" width="180" height="50" as="geometry" />
        </mxCell>
        <mxCell id="KOz0zT9MoUTCIAjUpcL3-56" style="edgeStyle=orthogonalEdgeStyle;rounded=0;orthogonalLoop=1;jettySize=auto;html=1;entryX=0;entryY=0.5;entryDx=0;entryDy=0;" edge="1" parent="1" source="KOz0zT9MoUTCIAjUpcL3-25" target="KOz0zT9MoUTCIAjUpcL3-24">
          <mxGeometry relative="1" as="geometry" />
        </mxCell>
        <mxCell id="KOz0zT9MoUTCIAjUpcL3-25" value="Изменить счёт" style="ellipse;whiteSpace=wrap;html=1;" vertex="1" parent="1">
          <mxGeometry x="570" y="735" width="180" height="50" as="geometry" />
        </mxCell>
        <mxCell id="KOz0zT9MoUTCIAjUpcL3-64" style="rounded=0;orthogonalLoop=1;jettySize=auto;html=1;entryX=0;entryY=0.5;entryDx=0;entryDy=0;endArrow=none;endFill=0;" edge="1" parent="1" source="KOz0zT9MoUTCIAjUpcL3-49" target="KOz0zT9MoUTCIAjUpcL3-59">
          <mxGeometry relative="1" as="geometry" />
        </mxCell>
        <mxCell id="KOz0zT9MoUTCIAjUpcL3-65" style="rounded=0;orthogonalLoop=1;jettySize=auto;html=1;entryX=0;entryY=0.5;entryDx=0;entryDy=0;endArrow=none;endFill=0;" edge="1" parent="1" source="KOz0zT9MoUTCIAjUpcL3-49" target="KOz0zT9MoUTCIAjUpcL3-57">
          <mxGeometry relative="1" as="geometry" />
        </mxCell>
        <mxCell id="KOz0zT9MoUTCIAjUpcL3-69" style="rounded=0;orthogonalLoop=1;jettySize=auto;html=1;entryX=1;entryY=0.5;entryDx=0;entryDy=0;endArrow=none;endFill=0;" edge="1" parent="1" source="KOz0zT9MoUTCIAjUpcL3-49" target="KOz0zT9MoUTCIAjUpcL3-50">
          <mxGeometry relative="1" as="geometry" />
        </mxCell>
        <mxCell id="KOz0zT9MoUTCIAjUpcL3-70" style="rounded=0;orthogonalLoop=1;jettySize=auto;html=1;entryX=1;entryY=0.5;entryDx=0;entryDy=0;endArrow=none;endFill=0;" edge="1" parent="1" source="KOz0zT9MoUTCIAjUpcL3-49" target="KOz0zT9MoUTCIAjUpcL3-52">
          <mxGeometry relative="1" as="geometry" />
        </mxCell>
        <mxCell id="KOz0zT9MoUTCIAjUpcL3-71" style="rounded=0;orthogonalLoop=1;jettySize=auto;html=1;entryX=1;entryY=0.5;entryDx=0;entryDy=0;endArrow=none;endFill=0;" edge="1" parent="1" source="KOz0zT9MoUTCIAjUpcL3-49" target="KOz0zT9MoUTCIAjUpcL3-61">
          <mxGeometry relative="1" as="geometry" />
        </mxCell>
        <mxCell id="KOz0zT9MoUTCIAjUpcL3-72" style="rounded=0;orthogonalLoop=1;jettySize=auto;html=1;entryX=1;entryY=0.5;entryDx=0;entryDy=0;endArrow=none;endFill=0;" edge="1" parent="1" source="KOz0zT9MoUTCIAjUpcL3-49" target="KOz0zT9MoUTCIAjUpcL3-63">
          <mxGeometry relative="1" as="geometry" />
        </mxCell>
        <mxCell id="KOz0zT9MoUTCIAjUpcL3-73" style="rounded=0;orthogonalLoop=1;jettySize=auto;html=1;" edge="1" parent="1" source="KOz0zT9MoUTCIAjUpcL3-49" target="KOz0zT9MoUTCIAjUpcL3-1">
          <mxGeometry relative="1" as="geometry" />
        </mxCell>
        <mxCell id="KOz0zT9MoUTCIAjUpcL3-49" value="Администратор" style="shape=umlActor;verticalLabelPosition=bottom;verticalAlign=top;html=1;outlineConnect=0;" vertex="1" parent="1">
          <mxGeometry x="403" y="835" width="30" height="60" as="geometry" />
        </mxCell>
        <mxCell id="KOz0zT9MoUTCIAjUpcL3-50" value="Создать валюту" style="ellipse;whiteSpace=wrap;html=1;" vertex="1" parent="1">
          <mxGeometry x="190" y="750" width="180" height="50" as="geometry" />
        </mxCell>
        <mxCell id="KOz0zT9MoUTCIAjUpcL3-51" value="Удалить валюту" style="ellipse;whiteSpace=wrap;html=1;" vertex="1" parent="1">
          <mxGeometry x="-10" y="810" width="180" height="50" as="geometry" />
        </mxCell>
        <mxCell id="KOz0zT9MoUTCIAjUpcL3-68" style="edgeStyle=orthogonalEdgeStyle;rounded=0;orthogonalLoop=1;jettySize=auto;html=1;entryX=1;entryY=0.5;entryDx=0;entryDy=0;" edge="1" parent="1" source="KOz0zT9MoUTCIAjUpcL3-52" target="KOz0zT9MoUTCIAjUpcL3-51">
          <mxGeometry relative="1" as="geometry" />
        </mxCell>
        <mxCell id="KOz0zT9MoUTCIAjUpcL3-52" value="Изменить валюту" style="ellipse;whiteSpace=wrap;html=1;" vertex="1" parent="1">
          <mxGeometry x="190" y="810" width="180" height="50" as="geometry" />
        </mxCell>
        <mxCell id="KOz0zT9MoUTCIAjUpcL3-53" style="edgeStyle=orthogonalEdgeStyle;rounded=0;orthogonalLoop=1;jettySize=auto;html=1;exitX=0.5;exitY=1;exitDx=0;exitDy=0;" edge="1" parent="1" source="KOz0zT9MoUTCIAjUpcL3-8" target="KOz0zT9MoUTCIAjUpcL3-8">
          <mxGeometry relative="1" as="geometry" />
        </mxCell>
        <mxCell id="KOz0zT9MoUTCIAjUpcL3-57" value="Создать обменный курс" style="ellipse;whiteSpace=wrap;html=1;" vertex="1" parent="1">
          <mxGeometry x="470" y="800" width="180" height="50" as="geometry" />
        </mxCell>
        <mxCell id="KOz0zT9MoUTCIAjUpcL3-58" value="Удалить обменный курс" style="ellipse;whiteSpace=wrap;html=1;" vertex="1" parent="1">
          <mxGeometry x="670" y="855" width="180" height="50" as="geometry" />
        </mxCell>
        <mxCell id="KOz0zT9MoUTCIAjUpcL3-66" style="edgeStyle=orthogonalEdgeStyle;rounded=0;orthogonalLoop=1;jettySize=auto;html=1;entryX=0;entryY=0.5;entryDx=0;entryDy=0;" edge="1" parent="1" source="KOz0zT9MoUTCIAjUpcL3-59" target="KOz0zT9MoUTCIAjUpcL3-58">
          <mxGeometry relative="1" as="geometry" />
        </mxCell>
        <mxCell id="KOz0zT9MoUTCIAjUpcL3-59" value="Изменить обменный курс" style="ellipse;whiteSpace=wrap;html=1;" vertex="1" parent="1">
          <mxGeometry x="470" y="855" width="180" height="50" as="geometry" />
        </mxCell>
        <mxCell id="KOz0zT9MoUTCIAjUpcL3-61" value="Создать категорию" style="ellipse;whiteSpace=wrap;html=1;" vertex="1" parent="1">
          <mxGeometry x="190" y="870" width="180" height="50" as="geometry" />
        </mxCell>
        <mxCell id="KOz0zT9MoUTCIAjUpcL3-62" value="Удалить категорию" style="ellipse;whiteSpace=wrap;html=1;" vertex="1" parent="1">
          <mxGeometry x="-10" y="930" width="180" height="50" as="geometry" />
        </mxCell>
        <mxCell id="KOz0zT9MoUTCIAjUpcL3-67" style="edgeStyle=orthogonalEdgeStyle;rounded=0;orthogonalLoop=1;jettySize=auto;html=1;entryX=1;entryY=0.5;entryDx=0;entryDy=0;" edge="1" parent="1" source="KOz0zT9MoUTCIAjUpcL3-63" target="KOz0zT9MoUTCIAjUpcL3-62">
          <mxGeometry relative="1" as="geometry" />
        </mxCell>
        <mxCell id="KOz0zT9MoUTCIAjUpcL3-63" value="Изменить категорию" style="ellipse;whiteSpace=wrap;html=1;" vertex="1" parent="1">
          <mxGeometry x="190" y="930" width="180" height="50" as="geometry" />
        </mxCell>
        <mxCell id="KOz0zT9MoUTCIAjUpcL3-77" style="rounded=0;orthogonalLoop=1;jettySize=auto;html=1;" edge="1" parent="1" source="KOz0zT9MoUTCIAjUpcL3-74" target="KOz0zT9MoUTCIAjUpcL3-49">
          <mxGeometry relative="1" as="geometry" />
        </mxCell>
        <mxCell id="KOz0zT9MoUTCIAjUpcL3-78" style="rounded=0;orthogonalLoop=1;jettySize=auto;html=1;entryX=0;entryY=0.5;entryDx=0;entryDy=0;endArrow=none;endFill=0;" edge="1" parent="1" source="KOz0zT9MoUTCIAjUpcL3-74" target="KOz0zT9MoUTCIAjUpcL3-75">
          <mxGeometry relative="1" as="geometry" />
        </mxCell>
        <mxCell id="KOz0zT9MoUTCIAjUpcL3-79" style="rounded=0;orthogonalLoop=1;jettySize=auto;html=1;entryX=0;entryY=0.5;entryDx=0;entryDy=0;endArrow=none;endFill=0;" edge="1" parent="1" source="KOz0zT9MoUTCIAjUpcL3-74" target="KOz0zT9MoUTCIAjUpcL3-76">
          <mxGeometry relative="1" as="geometry" />
        </mxCell>
        <mxCell id="KOz0zT9MoUTCIAjUpcL3-74" value="Система" style="shape=umlActor;verticalLabelPosition=bottom;verticalAlign=top;html=1;outlineConnect=0;" vertex="1" parent="1">
          <mxGeometry x="470" y="920" width="30" height="60" as="geometry" />
        </mxCell>
        <mxCell id="KOz0zT9MoUTCIAjUpcL3-75" value="Зарегистрировать пользователя" style="ellipse;whiteSpace=wrap;html=1;" vertex="1" parent="1">
          <mxGeometry x="540" y="910" width="180" height="50" as="geometry" />
        </mxCell>
        <mxCell id="KOz0zT9MoUTCIAjUpcL3-76" value="Удалить пользователя" style="ellipse;whiteSpace=wrap;html=1;" vertex="1" parent="1">
          <mxGeometry x="540" y="970" width="180" height="50" as="geometry" />
        </mxCell>
      </root>
    </mxGraphModel>
  </diagram>
</mxfile>
